<?xml version="1.0" encoding="UTF-8" standalone="no"?>
<svg
   xmlns:dc="http://purl.org/dc/elements/1.1/"
   xmlns:cc="http://creativecommons.org/ns#"
   xmlns:rdf="http://www.w3.org/1999/02/22-rdf-syntax-ns#"
   xmlns:svg="http://www.w3.org/2000/svg"
   xmlns="http://www.w3.org/2000/svg"
   xmlns:sodipodi="http://sodipodi.sourceforge.net/DTD/sodipodi-0.dtd"
   xmlns:inkscape="http://www.inkscape.org/namespaces/inkscape"
   fill-opacity="1"
   color-rendering="auto"
   color-interpolation="auto"
   text-rendering="auto"
   stroke="black"
   stroke-linecap="square"
   width="2.8645833333333335in"
   stroke-miterlimit="10"
   shape-rendering="auto"
   stroke-opacity="1"
   fill="black"
   stroke-dasharray="none"
   font-weight="normal"
   stroke-width="1"
   viewBox="0 0 275 261"
   height="2.71875in"
   font-family="'Arial'"
   font-style="normal"
   stroke-linejoin="miter"
   font-size="12"
   stroke-dashoffset="0"
   image-rendering="auto"
   version="1.1"
   id="svg92"
   sodipodi:docname="Position Quille1.svg"
   inkscape:version="0.92.3 (2405546, 2018-03-11)">
  <metadata
     id="metadata96">
    <rdf:RDF>
      <cc:Work
         rdf:about="">
        <dc:format>image/svg+xml</dc:format>
        <dc:type
           rdf:resource="http://purl.org/dc/dcmitype/StillImage" />
      </cc:Work>
    </rdf:RDF>
  </metadata>
  <sodipodi:namedview
     pagecolor="#ffffff"
     bordercolor="#666666"
     borderopacity="1"
     objecttolerance="10"
     gridtolerance="10"
     guidetolerance="10"
     inkscape:pageopacity="0"
     inkscape:pageshadow="2"
     inkscape:window-width="1920"
     inkscape:window-height="986"
     id="namedview94"
     showgrid="false"
     inkscape:zoom="0.90421456"
     inkscape:cx="137.5"
     inkscape:cy="130.5"
     inkscape:window-x="-11"
     inkscape:window-y="-11"
     inkscape:window-maximized="1"
     inkscape:current-layer="g88" />
  <!--Generated by the Batik Graphics2D SVG Generator
 This is MagicDraw diagram.-->
  <defs
     id="genericDefs" />
  <g
     id="g90">
    <defs
       id="defs1">
      <linearGradient
         x1="35"
         gradientUnits="userSpaceOnUse"
         x2="175"
         y1="35"
         y2="137"
         id="linearGradient1"
         spreadMethod="pad">
        <stop
           stop-opacity="1"
           stop-color="rgb(254,235,232)"
           offset="0%"
           id="stop3" />
        <stop
           stop-opacity="1"
           stop-color="white"
           offset="100%"
           id="stop5" />
      </linearGradient>
      <linearGradient
         x1="35"
         gradientUnits="userSpaceOnUse"
         x2="175"
         y1="154"
         y2="226"
         id="linearGradient2"
         spreadMethod="pad">
        <stop
           stop-opacity="1"
           stop-color="rgb(254,235,232)"
           offset="0%"
           id="stop8" />
        <stop
           stop-opacity="1"
           stop-color="white"
           offset="100%"
           id="stop10" />
      </linearGradient>
      <clipPath
         clipPathUnits="userSpaceOnUse"
         id="clipPath1">
        <path
           d="M0 -5 L275 -5 L275 261 L0 261 L0 -5 Z"
           id="path13" />
      </clipPath>
      <clipPath
         clipPathUnits="userSpaceOnUse"
         id="clipPath2">
        <path
           d="M214.7064 55.648 L391.2357 239.6655 L217.3212 406.5029 L40.7919 222.4855 L214.7064 55.648 Z"
           id="path16" />
      </clipPath>
    </defs>
    <g
       fill="rgb(66,66,66)"
       text-rendering="geometricPrecision"
       stroke-linecap="butt"
       stroke="rgb(66,66,66)"
       stroke-linejoin="round"
       id="g88">
      <rect
         x="38"
         y="38"
         clip-path="url(#clipPath1)"
         fill="rgb(178,178,178)"
         width="140"
         height="102"
         stroke="none"
         id="rect50"
         inkscape:export-xdpi="300"
         inkscape:export-ydpi="300" />
      <rect
         x="35"
         y="35"
         clip-path="url(#clipPath1)"
         fill="url(#linearGradient1)"
         width="140"
         height="102"
         stroke="none"
         id="rect52"
         inkscape:export-xdpi="300"
         inkscape:export-ydpi="300" />
      <rect
         x="35"
         y="35"
         clip-path="url(#clipPath1)"
         fill="none"
         width="140"
         height="102"
         stroke="rgb(153,121,92)"
         id="rect54"
         inkscape:export-xdpi="300"
         inkscape:export-ydpi="300" />
      <line
         clip-path="url(#clipPath1)"
         fill="none"
         x1="35"
         x2="175"
         y1="68"
         y2="68"
         stroke="rgb(153,121,92)"
         id="line56"
         inkscape:export-xdpi="300"
         inkscape:export-ydpi="300" />
      <path
         fill="black"
         text-rendering="optimizeLegibility"
         d="M39.125 83 L39.125 74.4062 L40.25 74.4062 L40.25 83 L39.125 83 ZM45.8281 83 L45.8281 82.2188 Q45.2344 83.1406 44.0938 83.1406 Q43.3438 83.1406 42.7188 82.7266 Q42.0938 82.3125 41.75 81.5781 Q41.4062 80.8438 41.4062 79.8906 Q41.4062 78.9688 41.7188 78.2031 Q42.0312 77.4375 42.6562 77.0391 Q43.2812 76.6406 44.0469 76.6406 Q44.6094 76.6406 45.0469 76.875 Q45.4844 77.1094 45.7656 77.4844 L45.7656 74.4062 L46.8125 74.4062 L46.8125 83 L45.8281 83 ZM42.5 79.8906 Q42.5 81.0938 43 81.6797 Q43.5 82.2656 44.1875 82.2656 Q44.875 82.2656 45.3594 81.7031 Q45.8438 81.1406 45.8438 79.9844 Q45.8438 78.7031 45.3516 78.1094 Q44.8594 77.5156 44.1406 77.5156 Q43.4375 77.5156 42.9688 78.0859 Q42.5 78.6562 42.5 79.8906 ZM57.3438 77.9531 L51.6719 77.9531 L51.6719 76.9688 L57.3438 76.9688 L57.3438 77.9531 ZM57.3438 80.5625 L51.6719 80.5625 L51.6719 79.5781 L57.3438 79.5781 L57.3438 80.5625 ZM61.8438 77.4531 L61.5469 75.8125 L61.5469 74.4062 L62.75 74.4062 L62.75 75.8125 L62.4844 77.4531 L61.8438 77.4531 ZM63.7812 77.4531 L63.5 75.8125 L63.5 74.4062 L64.7031 74.4062 L64.7031 75.8125 L64.4219 77.4531 L63.7812 77.4531 ZM71.0469 81.9844 L71.0469 83 L65.3594 83 Q65.3594 82.625 65.4844 82.2656 Q65.7031 81.6875 66.1797 81.125 Q66.6562 80.5625 67.5625 79.8281 Q68.9688 78.6719 69.4609 78 Q69.9531 77.3281 69.9531 76.7344 Q69.9531 76.1094 69.5 75.6797 Q69.0469 75.25 68.3281 75.25 Q67.5625 75.25 67.1094 75.7031 Q66.6562 76.1562 66.6406 76.9688 L65.5625 76.8594 Q65.6719 75.6406 66.3984 75.0078 Q67.125 74.375 68.3594 74.375 Q69.5938 74.375 70.3125 75.0625 Q71.0312 75.75 71.0312 76.7656 Q71.0312 77.2812 70.8203 77.7734 Q70.6094 78.2656 70.1172 78.8203 Q69.625 79.375 68.5 80.3281 Q67.5469 81.125 67.2734 81.4141 Q67 81.7031 66.8281 81.9844 L71.0469 81.9844 ZM73.0938 83 L73.0938 81.7969 L74.2969 81.7969 L74.2969 83 L73.0938 83 ZM81.0469 81.9844 L81.0469 83 L75.3594 83 Q75.3594 82.625 75.4844 82.2656 Q75.7031 81.6875 76.1797 81.125 Q76.6562 80.5625 77.5625 79.8281 Q78.9688 78.6719 79.4609 78 Q79.9531 77.3281 79.9531 76.7344 Q79.9531 76.1094 79.5 75.6797 Q79.0469 75.25 78.3281 75.25 Q77.5625 75.25 77.1094 75.7031 Q76.6562 76.1562 76.6406 76.9688 L75.5625 76.8594 Q75.6719 75.6406 76.3984 75.0078 Q77.125 74.375 78.3594 74.375 Q79.5938 74.375 80.3125 75.0625 Q81.0312 75.75 81.0312 76.7656 Q81.0312 77.2812 80.8203 77.7734 Q80.6094 78.2656 80.1172 78.8203 Q79.625 79.375 78.5 80.3281 Q77.5469 81.125 77.2734 81.4141 Q77 81.7031 76.8281 81.9844 L81.0469 81.9844 ZM83.0938 83 L83.0938 81.7969 L84.2969 81.7969 L84.2969 83 L83.0938 83 ZM91.0469 81.9844 L91.0469 83 L85.3594 83 Q85.3594 82.625 85.4844 82.2656 Q85.7031 81.6875 86.1797 81.125 Q86.6562 80.5625 87.5625 79.8281 Q88.9688 78.6719 89.4609 78 Q89.9531 77.3281 89.9531 76.7344 Q89.9531 76.1094 89.5 75.6797 Q89.0469 75.25 88.3281 75.25 Q87.5625 75.25 87.1094 75.7031 Q86.6562 76.1562 86.6406 76.9688 L85.5625 76.8594 Q85.6719 75.6406 86.3984 75.0078 Q87.125 74.375 88.3594 74.375 Q89.5938 74.375 90.3125 75.0625 Q91.0312 75.75 91.0312 76.7656 Q91.0312 77.2812 90.8203 77.7734 Q90.6094 78.2656 90.1172 78.8203 Q89.625 79.375 88.5 80.3281 Q87.5469 81.125 87.2734 81.4141 Q87 81.7031 86.8281 81.9844 L91.0469 81.9844 ZM92.8438 77.4531 L92.5469 75.8125 L92.5469 74.4062 L93.75 74.4062 L93.75 75.8125 L93.4844 77.4531 L92.8438 77.4531 ZM94.7812 77.4531 L94.5 75.8125 L94.5 74.4062 L95.7031 74.4062 L95.7031 75.8125 L95.4219 77.4531 L94.7812 77.4531 Z"
         clip-path="url(#clipPath1)"
         stroke="none"
         id="path58"
         inkscape:export-xdpi="300"
         inkscape:export-ydpi="300" />
      <path
         fill="black"
         text-rendering="optimizeLegibility"
         d="M41.1094 98 L41.1094 90.4219 L38.2812 90.4219 L38.2812 89.4062 L45.0938 89.4062 L45.0938 90.4219 L42.25 90.4219 L42.25 98 L41.1094 98 ZM50.0469 96 L51.1406 96.125 Q50.8906 97.0781 50.1875 97.6094 Q49.4844 98.1406 48.4062 98.1406 Q47.0469 98.1406 46.2422 97.2969 Q45.4375 96.4531 45.4375 94.9375 Q45.4375 93.375 46.25 92.5078 Q47.0625 91.6406 48.3438 91.6406 Q49.5938 91.6406 50.3828 92.4844 Q51.1719 93.3281 51.1719 94.875 Q51.1719 94.9688 51.1719 95.1562 L46.5312 95.1562 Q46.5938 96.1875 47.1094 96.7266 Q47.625 97.2656 48.4062 97.2656 Q48.9844 97.2656 49.3984 96.9609 Q49.8125 96.6562 50.0469 96 ZM46.5938 94.2969 L50.0625 94.2969 Q50 93.5 49.6719 93.1094 Q49.1562 92.5 48.3594 92.5 Q47.625 92.5 47.1328 92.9844 Q46.6406 93.4688 46.5938 94.2969 ZM52.0938 98 L54.3594 94.7656 L52.2656 91.7812 L53.5781 91.7812 L54.5312 93.2344 Q54.7969 93.6562 54.9688 93.9375 Q55.2188 93.5469 55.4375 93.25 L56.4844 91.7812 L57.75 91.7812 L55.5938 94.7031 L57.9062 98 L56.625 98 L55.3438 96.0625 L55 95.5469 L53.3594 98 L52.0938 98 ZM60.0938 97.0625 L60.25 97.9844 Q59.7969 98.0781 59.4531 98.0781 Q58.875 98.0781 58.5625 97.8984 Q58.25 97.7188 58.1172 97.4219 Q57.9844 97.125 57.9844 96.1719 L57.9844 92.5938 L57.2188 92.5938 L57.2188 91.7812 L57.9844 91.7812 L57.9844 90.2344 L59.0312 89.6094 L59.0312 91.7812 L60.0938 91.7812 L60.0938 92.5938 L59.0312 92.5938 L59.0312 96.2344 Q59.0312 96.6875 59.0859 96.8125 Q59.1406 96.9375 59.2656 97.0156 Q59.3906 97.0938 59.625 97.0938 Q59.8125 97.0938 60.0938 97.0625 ZM69.3438 92.9531 L63.6719 92.9531 L63.6719 91.9688 L69.3438 91.9688 L69.3438 92.9531 ZM69.3438 95.5625 L63.6719 95.5625 L63.6719 94.5781 L69.3438 94.5781 L69.3438 95.5625 ZM73.8438 92.4531 L73.5469 90.8125 L73.5469 89.4062 L74.75 89.4062 L74.75 90.8125 L74.4844 92.4531 L73.8438 92.4531 ZM75.7812 92.4531 L75.5 90.8125 L75.5 89.4062 L76.7031 89.4062 L76.7031 90.8125 L76.4219 92.4531 L75.7812 92.4531 ZM80.375 98 L77.0469 89.4062 L78.2812 89.4062 L80.5156 95.6562 Q80.7812 96.4062 80.9688 97.0625 Q81.1719 96.3594 81.4375 95.6562 L83.75 89.4062 L84.9062 89.4062 L81.5469 98 L80.375 98 ZM84.7969 90.625 L84.7969 89.4062 L85.8594 89.4062 L85.8594 90.625 L84.7969 90.625 ZM84.7969 98 L84.7969 91.7812 L85.8594 91.7812 L85.8594 98 L84.7969 98 ZM90.0938 97.0625 L90.25 97.9844 Q89.7969 98.0781 89.4531 98.0781 Q88.875 98.0781 88.5625 97.8984 Q88.25 97.7188 88.1172 97.4219 Q87.9844 97.125 87.9844 96.1719 L87.9844 92.5938 L87.2188 92.5938 L87.2188 91.7812 L87.9844 91.7812 L87.9844 90.2344 L89.0312 89.6094 L89.0312 91.7812 L90.0938 91.7812 L90.0938 92.5938 L89.0312 92.5938 L89.0312 96.2344 Q89.0312 96.6875 89.0859 96.8125 Q89.1406 96.9375 89.2656 97.0156 Q89.3906 97.0938 89.625 97.0938 Q89.8125 97.0938 90.0938 97.0625 ZM95.0469 96 L96.1406 96.125 Q95.8906 97.0781 95.1875 97.6094 Q94.4844 98.1406 93.4062 98.1406 Q92.0469 98.1406 91.2422 97.2969 Q90.4375 96.4531 90.4375 94.9375 Q90.4375 93.375 91.25 92.5078 Q92.0625 91.6406 93.3438 91.6406 Q94.5938 91.6406 95.3828 92.4844 Q96.1719 93.3281 96.1719 94.875 Q96.1719 94.9688 96.1719 95.1562 L91.5312 95.1562 Q91.5938 96.1875 92.1094 96.7266 Q92.625 97.2656 93.4062 97.2656 Q93.9844 97.2656 94.3984 96.9609 Q94.8125 96.6562 95.0469 96 ZM91.5938 94.2969 L95.0625 94.2969 Q95 93.5 94.6719 93.1094 Q94.1562 92.5 93.3594 92.5 Q92.625 92.5 92.1328 92.9844 Q91.6406 93.4688 91.5938 94.2969 ZM97.375 96.1406 L98.4062 95.9844 Q98.5 96.6094 98.8984 96.9375 Q99.2969 97.2656 100.0312 97.2656 Q100.75 97.2656 101.1016 96.9766 Q101.4531 96.6875 101.4531 96.2812 Q101.4531 95.9219 101.1406 95.7188 Q100.9219 95.5781 100.0625 95.3594 Q98.9062 95.0625 98.4609 94.8516 Q98.0156 94.6406 97.7812 94.2656 Q97.5469 93.8906 97.5469 93.4219 Q97.5469 93.0156 97.7344 92.6562 Q97.9219 92.2969 98.25 92.0625 Q98.5 91.8906 98.9219 91.7656 Q99.3438 91.6406 99.8438 91.6406 Q100.5625 91.6406 101.1172 91.8516 Q101.6719 92.0625 101.9375 92.4219 Q102.2031 92.7812 102.2969 93.375 L101.2656 93.5156 Q101.2031 93.0469 100.8672 92.7734 Q100.5312 92.5 99.9062 92.5 Q99.1875 92.5 98.875 92.7422 Q98.5625 92.9844 98.5625 93.3125 Q98.5625 93.5156 98.6875 93.6719 Q98.8281 93.8438 99.0938 93.9531 Q99.25 94.0156 100.0312 94.2188 Q101.1562 94.5312 101.5938 94.7188 Q102.0312 94.9062 102.2812 95.2656 Q102.5312 95.625 102.5312 96.1719 Q102.5312 96.7031 102.2266 97.1641 Q101.9219 97.625 101.3438 97.8828 Q100.7656 98.1406 100.0312 98.1406 Q98.8125 98.1406 98.1797 97.6328 Q97.5469 97.125 97.375 96.1406 ZM104.375 96.1406 L105.4062 95.9844 Q105.5 96.6094 105.8984 96.9375 Q106.2969 97.2656 107.0312 97.2656 Q107.75 97.2656 108.1016 96.9766 Q108.4531 96.6875 108.4531 96.2812 Q108.4531 95.9219 108.1406 95.7188 Q107.9219 95.5781 107.0625 95.3594 Q105.9062 95.0625 105.4609 94.8516 Q105.0156 94.6406 104.7812 94.2656 Q104.5469 93.8906 104.5469 93.4219 Q104.5469 93.0156 104.7344 92.6562 Q104.9219 92.2969 105.25 92.0625 Q105.5 91.8906 105.9219 91.7656 Q106.3438 91.6406 106.8438 91.6406 Q107.5625 91.6406 108.1172 91.8516 Q108.6719 92.0625 108.9375 92.4219 Q109.2031 92.7812 109.2969 93.375 L108.2656 93.5156 Q108.2031 93.0469 107.8672 92.7734 Q107.5312 92.5 106.9062 92.5 Q106.1875 92.5 105.875 92.7422 Q105.5625 92.9844 105.5625 93.3125 Q105.5625 93.5156 105.6875 93.6719 Q105.8281 93.8438 106.0938 93.9531 Q106.25 94.0156 107.0312 94.2188 Q108.1562 94.5312 108.5938 94.7188 Q109.0312 94.9062 109.2812 95.2656 Q109.5312 95.625 109.5312 96.1719 Q109.5312 96.7031 109.2266 97.1641 Q108.9219 97.625 108.3438 97.8828 Q107.7656 98.1406 107.0312 98.1406 Q105.8125 98.1406 105.1797 97.6328 Q104.5469 97.125 104.375 96.1406 ZM116.0469 96 L117.1406 96.125 Q116.8906 97.0781 116.1875 97.6094 Q115.4844 98.1406 114.4062 98.1406 Q113.0469 98.1406 112.2422 97.2969 Q111.4375 96.4531 111.4375 94.9375 Q111.4375 93.375 112.25 92.5078 Q113.0625 91.6406 114.3438 91.6406 Q115.5938 91.6406 116.3828 92.4844 Q117.1719 93.3281 117.1719 94.875 Q117.1719 94.9688 117.1719 95.1562 L112.5312 95.1562 Q112.5938 96.1875 113.1094 96.7266 Q113.625 97.2656 114.4062 97.2656 Q114.9844 97.2656 115.3984 96.9609 Q115.8125 96.6562 116.0469 96 ZM112.5938 94.2969 L116.0625 94.2969 Q116 93.5 115.6719 93.1094 Q115.1562 92.5 114.3594 92.5 Q113.625 92.5 113.1328 92.9844 Q112.6406 93.4688 112.5938 94.2969 Z"
         clip-path="url(#clipPath1)"
         stroke="none"
         id="path60"
         inkscape:export-xdpi="300"
         inkscape:export-ydpi="300" />
      <path
         fill="black"
         text-rendering="optimizeLegibility"
         d="M42.8594 112.2344 Q42.2656 112.7344 41.7266 112.9375 Q41.1875 113.1406 40.5625 113.1406 Q39.5312 113.1406 38.9844 112.6406 Q38.4375 112.1406 38.4375 111.3594 Q38.4375 110.9062 38.6406 110.5234 Q38.8438 110.1406 39.1875 109.9141 Q39.5312 109.6875 39.9531 109.5781 Q40.25 109.4844 40.8906 109.4062 Q42.1562 109.2656 42.7656 109.0469 Q42.7656 108.8281 42.7656 108.7812 Q42.7656 108.125 42.4688 107.8594 Q42.0625 107.5156 41.2656 107.5156 Q40.5312 107.5156 40.1719 107.7734 Q39.8125 108.0312 39.6406 108.6875 L38.6094 108.5469 Q38.75 107.8906 39.0781 107.4844 Q39.4062 107.0781 40.0156 106.8594 Q40.625 106.6406 41.4219 106.6406 Q42.2188 106.6406 42.7188 106.8281 Q43.2188 107.0156 43.4531 107.2969 Q43.6875 107.5781 43.7812 108.0156 Q43.8281 108.2812 43.8281 108.9844 L43.8281 110.3906 Q43.8281 111.8594 43.8984 112.25 Q43.9688 112.6406 44.1719 113 L43.0625 113 Q42.9062 112.6719 42.8594 112.2344 ZM42.7656 109.875 Q42.1875 110.1094 41.0469 110.2812 Q40.3906 110.375 40.125 110.4922 Q39.8594 110.6094 39.7109 110.8281 Q39.5625 111.0469 39.5625 111.3281 Q39.5625 111.75 39.8828 112.0312 Q40.2031 112.3125 40.8125 112.3125 Q41.4219 112.3125 41.8984 112.0469 Q42.375 111.7812 42.5938 111.3125 Q42.7656 110.9531 42.7656 110.2656 L42.7656 109.875 ZM45.7969 113 L45.7969 106.7812 L46.7344 106.7812 L46.7344 107.6562 Q47.4219 106.6406 48.7188 106.6406 Q49.2812 106.6406 49.7578 106.8438 Q50.2344 107.0469 50.4688 107.375 Q50.7031 107.7031 50.7969 108.1406 Q50.8438 108.4375 50.8438 109.1719 L50.8438 113 L49.7969 113 L49.7969 109.2188 Q49.7969 108.5625 49.6719 108.25 Q49.5469 107.9375 49.2344 107.7422 Q48.9219 107.5469 48.5 107.5469 Q47.8281 107.5469 47.3359 107.9766 Q46.8438 108.4062 46.8438 109.5938 L46.8438 113 L45.7969 113 ZM52.5938 113.5156 L53.625 113.6719 Q53.6875 114.1406 53.9844 114.3594 Q54.375 114.6562 55.0469 114.6562 Q55.7812 114.6562 56.1797 114.3594 Q56.5781 114.0625 56.7188 113.5469 Q56.8125 113.2188 56.7969 112.1875 Q56.1094 113 55.0781 113 Q53.7969 113 53.0938 112.0703 Q52.3906 111.1406 52.3906 109.8594 Q52.3906 108.9688 52.7109 108.2109 Q53.0312 107.4531 53.6406 107.0469 Q54.25 106.6406 55.0781 106.6406 Q56.1875 106.6406 56.9062 107.5312 L56.9062 106.7812 L57.875 106.7812 L57.875 112.1562 Q57.875 113.6094 57.5781 114.2188 Q57.2812 114.8281 56.6406 115.1797 Q56 115.5312 55.0625 115.5312 Q53.9531 115.5312 53.2656 115.0312 Q52.5781 114.5312 52.5938 113.5156 ZM53.4688 109.7812 Q53.4688 111 53.9531 111.5625 Q54.4375 112.125 55.1719 112.125 Q55.9062 112.125 56.3984 111.5625 Q56.8906 111 56.8906 109.8125 Q56.8906 108.6719 56.3828 108.0938 Q55.875 107.5156 55.1562 107.5156 Q54.4531 107.5156 53.9609 108.0859 Q53.4688 108.6562 53.4688 109.7812 ZM63.875 113 L63.875 112.0781 Q63.1406 113.1406 61.8906 113.1406 Q61.3438 113.1406 60.8672 112.9297 Q60.3906 112.7188 60.1562 112.3984 Q59.9219 112.0781 59.8281 111.6094 Q59.7656 111.3125 59.7656 110.625 L59.7656 106.7812 L60.8281 106.7812 L60.8281 110.2344 Q60.8281 111.0469 60.8906 111.3438 Q60.9844 111.75 61.3047 111.9922 Q61.625 112.2344 62.1094 112.2344 Q62.5781 112.2344 62.9922 111.9922 Q63.4062 111.75 63.5859 111.3281 Q63.7656 110.9062 63.7656 110.1094 L63.7656 106.7812 L64.8125 106.7812 L64.8125 113 L63.875 113 ZM66.7656 113 L66.7656 104.4062 L67.8281 104.4062 L67.8281 113 L66.7656 113 ZM73.8594 112.2344 Q73.2656 112.7344 72.7266 112.9375 Q72.1875 113.1406 71.5625 113.1406 Q70.5312 113.1406 69.9844 112.6406 Q69.4375 112.1406 69.4375 111.3594 Q69.4375 110.9062 69.6406 110.5234 Q69.8438 110.1406 70.1875 109.9141 Q70.5312 109.6875 70.9531 109.5781 Q71.25 109.4844 71.8906 109.4062 Q73.1562 109.2656 73.7656 109.0469 Q73.7656 108.8281 73.7656 108.7812 Q73.7656 108.125 73.4688 107.8594 Q73.0625 107.5156 72.2656 107.5156 Q71.5312 107.5156 71.1719 107.7734 Q70.8125 108.0312 70.6406 108.6875 L69.6094 108.5469 Q69.75 107.8906 70.0781 107.4844 Q70.4062 107.0781 71.0156 106.8594 Q71.625 106.6406 72.4219 106.6406 Q73.2188 106.6406 73.7188 106.8281 Q74.2188 107.0156 74.4531 107.2969 Q74.6875 107.5781 74.7812 108.0156 Q74.8281 108.2812 74.8281 108.9844 L74.8281 110.3906 Q74.8281 111.8594 74.8984 112.25 Q74.9688 112.6406 75.1719 113 L74.0625 113 Q73.9062 112.6719 73.8594 112.2344 ZM73.7656 109.875 Q73.1875 110.1094 72.0469 110.2812 Q71.3906 110.375 71.125 110.4922 Q70.8594 110.6094 70.7109 110.8281 Q70.5625 111.0469 70.5625 111.3281 Q70.5625 111.75 70.8828 112.0312 Q71.2031 112.3125 71.8125 112.3125 Q72.4219 112.3125 72.8984 112.0469 Q73.375 111.7812 73.5938 111.3125 Q73.7656 110.9531 73.7656 110.2656 L73.7656 109.875 ZM76.7969 105.625 L76.7969 104.4062 L77.8594 104.4062 L77.8594 105.625 L76.7969 105.625 ZM76.7969 113 L76.7969 106.7812 L77.8594 106.7812 L77.8594 113 L76.7969 113 ZM79.7812 113 L79.7812 106.7812 L80.7344 106.7812 L80.7344 107.7188 Q81.0938 107.0625 81.3984 106.8516 Q81.7031 106.6406 82.0781 106.6406 Q82.6094 106.6406 83.1562 106.9688 L82.7969 107.9531 Q82.4062 107.7188 82.0312 107.7188 Q81.6719 107.7188 81.3984 107.9297 Q81.125 108.1406 81.0156 108.5156 Q80.8281 109.0781 80.8281 109.7344 L80.8281 113 L79.7812 113 ZM88.0469 111 L89.1406 111.125 Q88.8906 112.0781 88.1875 112.6094 Q87.4844 113.1406 86.4062 113.1406 Q85.0469 113.1406 84.2422 112.2969 Q83.4375 111.4531 83.4375 109.9375 Q83.4375 108.375 84.25 107.5078 Q85.0625 106.6406 86.3438 106.6406 Q87.5938 106.6406 88.3828 107.4844 Q89.1719 108.3281 89.1719 109.875 Q89.1719 109.9688 89.1719 110.1562 L84.5312 110.1562 Q84.5938 111.1875 85.1094 111.7266 Q85.625 112.2656 86.4062 112.2656 Q86.9844 112.2656 87.3984 111.9609 Q87.8125 111.6562 88.0469 111 ZM84.5938 109.2969 L88.0625 109.2969 Q88 108.5 87.6719 108.1094 Q87.1562 107.5 86.3594 107.5 Q85.625 107.5 85.1328 107.9844 Q84.6406 108.4688 84.5938 109.2969 ZM97.8281 113 L97.8281 112.2188 Q97.2344 113.1406 96.0938 113.1406 Q95.3438 113.1406 94.7188 112.7266 Q94.0938 112.3125 93.75 111.5781 Q93.4062 110.8438 93.4062 109.8906 Q93.4062 108.9688 93.7188 108.2031 Q94.0312 107.4375 94.6562 107.0391 Q95.2812 106.6406 96.0469 106.6406 Q96.6094 106.6406 97.0469 106.875 Q97.4844 107.1094 97.7656 107.4844 L97.7656 104.4062 L98.8125 104.4062 L98.8125 113 L97.8281 113 ZM94.5 109.8906 Q94.5 111.0938 95 111.6797 Q95.5 112.2656 96.1875 112.2656 Q96.875 112.2656 97.3594 111.7031 Q97.8438 111.1406 97.8438 109.9844 Q97.8438 108.7031 97.3516 108.1094 Q96.8594 107.5156 96.1406 107.5156 Q95.4375 107.5156 94.9688 108.0859 Q94.5 108.6562 94.5 109.8906 ZM105.0469 111 L106.1406 111.125 Q105.8906 112.0781 105.1875 112.6094 Q104.4844 113.1406 103.4062 113.1406 Q102.0469 113.1406 101.2422 112.2969 Q100.4375 111.4531 100.4375 109.9375 Q100.4375 108.375 101.25 107.5078 Q102.0625 106.6406 103.3438 106.6406 Q104.5938 106.6406 105.3828 107.4844 Q106.1719 108.3281 106.1719 109.875 Q106.1719 109.9688 106.1719 110.1562 L101.5312 110.1562 Q101.5938 111.1875 102.1094 111.7266 Q102.625 112.2656 103.4062 112.2656 Q103.9844 112.2656 104.3984 111.9609 Q104.8125 111.6562 105.0469 111 ZM101.5938 109.2969 L105.0625 109.2969 Q105 108.5 104.6719 108.1094 Q104.1562 107.5 103.3594 107.5 Q102.625 107.5 102.1328 107.9844 Q101.6406 108.4688 101.5938 109.2969 ZM110.7656 113 L110.7656 104.4062 L111.8281 104.4062 L111.8281 113 L110.7656 113 ZM117.8594 112.2344 Q117.2656 112.7344 116.7266 112.9375 Q116.1875 113.1406 115.5625 113.1406 Q114.5312 113.1406 113.9844 112.6406 Q113.4375 112.1406 113.4375 111.3594 Q113.4375 110.9062 113.6406 110.5234 Q113.8438 110.1406 114.1875 109.9141 Q114.5312 109.6875 114.9531 109.5781 Q115.25 109.4844 115.8906 109.4062 Q117.1562 109.2656 117.7656 109.0469 Q117.7656 108.8281 117.7656 108.7812 Q117.7656 108.125 117.4688 107.8594 Q117.0625 107.5156 116.2656 107.5156 Q115.5312 107.5156 115.1719 107.7734 Q114.8125 108.0312 114.6406 108.6875 L113.6094 108.5469 Q113.75 107.8906 114.0781 107.4844 Q114.4062 107.0781 115.0156 106.8594 Q115.625 106.6406 116.4219 106.6406 Q117.2188 106.6406 117.7188 106.8281 Q118.2188 107.0156 118.4531 107.2969 Q118.6875 107.5781 118.7812 108.0156 Q118.8281 108.2812 118.8281 108.9844 L118.8281 110.3906 Q118.8281 111.8594 118.8984 112.25 Q118.9688 112.6406 119.1719 113 L118.0625 113 Q117.9062 112.6719 117.8594 112.2344 ZM117.7656 109.875 Q117.1875 110.1094 116.0469 110.2812 Q115.3906 110.375 115.125 110.4922 Q114.8594 110.6094 114.7109 110.8281 Q114.5625 111.0469 114.5625 111.3281 Q114.5625 111.75 114.8828 112.0312 Q115.2031 112.3125 115.8125 112.3125 Q116.4219 112.3125 116.8984 112.0469 Q117.375 111.7812 117.5938 111.3125 Q117.7656 110.9531 117.7656 110.2656 L117.7656 109.875 ZM127.7656 115.3906 L127.7656 112.3438 Q127.5156 112.6875 127.0703 112.9141 Q126.625 113.1406 126.125 113.1406 Q125.0156 113.1406 124.2188 112.2578 Q123.4219 111.375 123.4219 109.8281 Q123.4219 108.8906 123.75 108.1484 Q124.0781 107.4062 124.6953 107.0234 Q125.3125 106.6406 126.0469 106.6406 Q127.2031 106.6406 127.8594 107.6094 L127.8594 106.7812 L128.8125 106.7812 L128.8125 115.3906 L127.7656 115.3906 ZM124.5 109.875 Q124.5 111.0781 125.0078 111.6719 Q125.5156 112.2656 126.2188 112.2656 Q126.8906 112.2656 127.375 111.6953 Q127.8594 111.125 127.8594 109.9688 Q127.8594 108.7188 127.3516 108.0938 Q126.8438 107.4688 126.1406 107.4688 Q125.4688 107.4688 124.9844 108.0547 Q124.5 108.6406 124.5 109.875 ZM134.875 113 L134.875 112.0781 Q134.1406 113.1406 132.8906 113.1406 Q132.3438 113.1406 131.8672 112.9297 Q131.3906 112.7188 131.1562 112.3984 Q130.9219 112.0781 130.8281 111.6094 Q130.7656 111.3125 130.7656 110.625 L130.7656 106.7812 L131.8281 106.7812 L131.8281 110.2344 Q131.8281 111.0469 131.8906 111.3438 Q131.9844 111.75 132.3047 111.9922 Q132.625 112.2344 133.1094 112.2344 Q133.5781 112.2344 133.9922 111.9922 Q134.4062 111.75 134.5859 111.3281 Q134.7656 110.9062 134.7656 110.1094 L134.7656 106.7812 L135.8125 106.7812 L135.8125 113 L134.875 113 ZM137.7969 105.625 L137.7969 104.4062 L138.8594 104.4062 L138.8594 105.625 L137.7969 105.625 ZM137.7969 113 L137.7969 106.7812 L138.8594 106.7812 L138.8594 113 L137.7969 113 ZM140.7656 113 L140.7656 104.4062 L141.8281 104.4062 L141.8281 113 L140.7656 113 ZM143.7656 113 L143.7656 104.4062 L144.8281 104.4062 L144.8281 113 L143.7656 113 ZM151.0469 111 L152.1406 111.125 Q151.8906 112.0781 151.1875 112.6094 Q150.4844 113.1406 149.4062 113.1406 Q148.0469 113.1406 147.2422 112.2969 Q146.4375 111.4531 146.4375 109.9375 Q146.4375 108.375 147.25 107.5078 Q148.0625 106.6406 149.3438 106.6406 Q150.5938 106.6406 151.3828 107.4844 Q152.1719 108.3281 152.1719 109.875 Q152.1719 109.9688 152.1719 110.1562 L147.5312 110.1562 Q147.5938 111.1875 148.1094 111.7266 Q148.625 112.2656 149.4062 112.2656 Q149.9844 112.2656 150.3984 111.9609 Q150.8125 111.6562 151.0469 111 ZM147.5938 109.2969 L151.0625 109.2969 Q151 108.5 150.6719 108.1094 Q150.1562 107.5 149.3594 107.5 Q148.625 107.5 148.1328 107.9844 Q147.6406 108.4688 147.5938 109.2969 Z"
         clip-path="url(#clipPath1)"
         stroke="none"
         id="path62"
         inkscape:export-xdpi="300"
         inkscape:export-ydpi="300" />
      <path
         fill="black"
         text-rendering="optimizeLegibility"
         d="M38.7969 120.625 L38.7969 119.4062 L39.8594 119.4062 L39.8594 120.625 L38.7969 120.625 ZM38.7969 128 L38.7969 121.7812 L39.8594 121.7812 L39.8594 128 L38.7969 128 ZM41.7969 128 L41.7969 121.7812 L42.7344 121.7812 L42.7344 122.6562 Q43.4219 121.6406 44.7188 121.6406 Q45.2812 121.6406 45.7578 121.8438 Q46.2344 122.0469 46.4688 122.375 Q46.7031 122.7031 46.7969 123.1406 Q46.8438 123.4375 46.8438 124.1719 L46.8438 128 L45.7969 128 L45.7969 124.2188 Q45.7969 123.5625 45.6719 123.25 Q45.5469 122.9375 45.2344 122.7422 Q44.9219 122.5469 44.5 122.5469 Q43.8281 122.5469 43.3359 122.9766 Q42.8438 123.4062 42.8438 124.5938 L42.8438 128 L41.7969 128 ZM49.0469 128 L49.0469 122.5938 L48.1094 122.5938 L48.1094 121.7812 L49.0469 121.7812 L49.0469 121.1094 Q49.0469 120.4844 49.1562 120.1875 Q49.3125 119.7656 49.6953 119.5156 Q50.0781 119.2656 50.7656 119.2656 Q51.2188 119.2656 51.75 119.375 L51.5938 120.2812 Q51.2656 120.2344 50.9688 120.2344 Q50.4844 120.2344 50.2891 120.4375 Q50.0938 120.6406 50.0938 121.2031 L50.0938 121.7812 L51.3125 121.7812 L51.3125 122.5938 L50.0938 122.5938 L50.0938 128 L49.0469 128 ZM56.0469 126 L57.1406 126.125 Q56.8906 127.0781 56.1875 127.6094 Q55.4844 128.1406 54.4062 128.1406 Q53.0469 128.1406 52.2422 127.2969 Q51.4375 126.4531 51.4375 124.9375 Q51.4375 123.375 52.25 122.5078 Q53.0625 121.6406 54.3438 121.6406 Q55.5938 121.6406 56.3828 122.4844 Q57.1719 123.3281 57.1719 124.875 Q57.1719 124.9688 57.1719 125.1562 L52.5312 125.1562 Q52.5938 126.1875 53.1094 126.7266 Q53.625 127.2656 54.4062 127.2656 Q54.9844 127.2656 55.3984 126.9609 Q55.8125 126.6562 56.0469 126 ZM52.5938 124.2969 L56.0625 124.2969 Q56 123.5 55.6719 123.1094 Q55.1562 122.5 54.3594 122.5 Q53.625 122.5 53.1328 122.9844 Q52.6406 123.4688 52.5938 124.2969 ZM53.125 120 L53.9062 118.3594 L55.2969 118.3594 L54 120 L53.125 120 ZM58.7812 128 L58.7812 121.7812 L59.7344 121.7812 L59.7344 122.7188 Q60.0938 122.0625 60.3984 121.8516 Q60.7031 121.6406 61.0781 121.6406 Q61.6094 121.6406 62.1562 121.9688 L61.7969 122.9531 Q61.4062 122.7188 61.0312 122.7188 Q60.6719 122.7188 60.3984 122.9297 Q60.125 123.1406 60.0156 123.5156 Q59.8281 124.0781 59.8281 124.7344 L59.8281 128 L58.7812 128 ZM62.7969 120.625 L62.7969 119.4062 L63.8594 119.4062 L63.8594 120.625 L62.7969 120.625 ZM62.7969 128 L62.7969 121.7812 L63.8594 121.7812 L63.8594 128 L62.7969 128 ZM70.0469 126 L71.1406 126.125 Q70.8906 127.0781 70.1875 127.6094 Q69.4844 128.1406 68.4062 128.1406 Q67.0469 128.1406 66.2422 127.2969 Q65.4375 126.4531 65.4375 124.9375 Q65.4375 123.375 66.25 122.5078 Q67.0625 121.6406 68.3438 121.6406 Q69.5938 121.6406 70.3828 122.4844 Q71.1719 123.3281 71.1719 124.875 Q71.1719 124.9688 71.1719 125.1562 L66.5312 125.1562 Q66.5938 126.1875 67.1094 126.7266 Q67.625 127.2656 68.4062 127.2656 Q68.9844 127.2656 69.3984 126.9609 Q69.8125 126.6562 70.0469 126 ZM66.5938 124.2969 L70.0625 124.2969 Q70 123.5 69.6719 123.1094 Q69.1562 122.5 68.3594 122.5 Q67.625 122.5 67.1328 122.9844 Q66.6406 123.4688 66.5938 124.2969 ZM76.875 128 L76.875 127.0781 Q76.1406 128.1406 74.8906 128.1406 Q74.3438 128.1406 73.8672 127.9297 Q73.3906 127.7188 73.1562 127.3984 Q72.9219 127.0781 72.8281 126.6094 Q72.7656 126.3125 72.7656 125.625 L72.7656 121.7812 L73.8281 121.7812 L73.8281 125.2344 Q73.8281 126.0469 73.8906 126.3438 Q73.9844 126.75 74.3047 126.9922 Q74.625 127.2344 75.1094 127.2344 Q75.5781 127.2344 75.9922 126.9922 Q76.4062 126.75 76.5859 126.3281 Q76.7656 125.9062 76.7656 125.1094 L76.7656 121.7812 L77.8125 121.7812 L77.8125 128 L76.875 128 ZM79.7812 128 L79.7812 121.7812 L80.7344 121.7812 L80.7344 122.7188 Q81.0938 122.0625 81.3984 121.8516 Q81.7031 121.6406 82.0781 121.6406 Q82.6094 121.6406 83.1562 121.9688 L82.7969 122.9531 Q82.4062 122.7188 82.0312 122.7188 Q81.6719 122.7188 81.3984 122.9297 Q81.125 123.1406 81.0156 123.5156 Q80.8281 124.0781 80.8281 124.7344 L80.8281 128 L79.7812 128 ZM88.0469 126 L89.1406 126.125 Q88.8906 127.0781 88.1875 127.6094 Q87.4844 128.1406 86.4062 128.1406 Q85.0469 128.1406 84.2422 127.2969 Q83.4375 126.4531 83.4375 124.9375 Q83.4375 123.375 84.25 122.5078 Q85.0625 121.6406 86.3438 121.6406 Q87.5938 121.6406 88.3828 122.4844 Q89.1719 123.3281 89.1719 124.875 Q89.1719 124.9688 89.1719 125.1562 L84.5312 125.1562 Q84.5938 126.1875 85.1094 126.7266 Q85.625 127.2656 86.4062 127.2656 Q86.9844 127.2656 87.3984 126.9609 Q87.8125 126.6562 88.0469 126 ZM84.5938 124.2969 L88.0625 124.2969 Q88 123.5 87.6719 123.1094 Q87.1562 122.5 86.3594 122.5 Q85.625 122.5 85.1328 122.9844 Q84.6406 123.4688 84.5938 124.2969 ZM97.8594 127.2344 Q97.2656 127.7344 96.7266 127.9375 Q96.1875 128.1406 95.5625 128.1406 Q94.5312 128.1406 93.9844 127.6406 Q93.4375 127.1406 93.4375 126.3594 Q93.4375 125.9062 93.6406 125.5234 Q93.8438 125.1406 94.1875 124.9141 Q94.5312 124.6875 94.9531 124.5781 Q95.25 124.4844 95.8906 124.4062 Q97.1562 124.2656 97.7656 124.0469 Q97.7656 123.8281 97.7656 123.7812 Q97.7656 123.125 97.4688 122.8594 Q97.0625 122.5156 96.2656 122.5156 Q95.5312 122.5156 95.1719 122.7734 Q94.8125 123.0312 94.6406 123.6875 L93.6094 123.5469 Q93.75 122.8906 94.0781 122.4844 Q94.4062 122.0781 95.0156 121.8594 Q95.625 121.6406 96.4219 121.6406 Q97.2188 121.6406 97.7188 121.8281 Q98.2188 122.0156 98.4531 122.2969 Q98.6875 122.5781 98.7812 123.0156 Q98.8281 123.2812 98.8281 123.9844 L98.8281 125.3906 Q98.8281 126.8594 98.8984 127.25 Q98.9688 127.6406 99.1719 128 L98.0625 128 Q97.9062 127.6719 97.8594 127.2344 ZM97.7656 124.875 Q97.1875 125.1094 96.0469 125.2812 Q95.3906 125.375 95.125 125.4922 Q94.8594 125.6094 94.7109 125.8281 Q94.5625 126.0469 94.5625 126.3281 Q94.5625 126.75 94.8828 127.0312 Q95.2031 127.3125 95.8125 127.3125 Q96.4219 127.3125 96.8984 127.0469 Q97.375 126.7812 97.5938 126.3125 Q97.7656 125.9531 97.7656 125.2656 L97.7656 124.875 ZM96.8438 120 L96 120 L94.6406 118.3594 L96.0625 118.3594 L96.8438 120 ZM105.125 123.3438 Q104.4688 123.0938 104.1484 122.6484 Q103.8281 122.2031 103.8281 121.5938 Q103.8281 120.6562 104.5078 120.0156 Q105.1875 119.375 106.2969 119.375 Q107.4219 119.375 108.1094 120.0312 Q108.7969 120.6875 108.7969 121.625 Q108.7969 122.2188 108.4844 122.6562 Q108.1719 123.0938 107.5312 123.3438 Q108.3281 123.5938 108.7344 124.1719 Q109.1406 124.75 109.1406 125.5469 Q109.1406 126.6406 108.3672 127.3906 Q107.5938 128.1406 106.3125 128.1406 Q105.0469 128.1406 104.2656 127.3906 Q103.4844 126.6406 103.4844 125.5156 Q103.4844 124.6719 103.9141 124.1094 Q104.3438 123.5469 105.125 123.3438 ZM104.9062 121.5469 Q104.9062 122.1562 105.3047 122.5469 Q105.7031 122.9375 106.3281 122.9375 Q106.9375 122.9375 107.3281 122.5547 Q107.7188 122.1719 107.7188 121.6094 Q107.7188 121.0312 107.3125 120.6328 Q106.9062 120.2344 106.3125 120.2344 Q105.7031 120.2344 105.3047 120.625 Q104.9062 121.0156 104.9062 121.5469 ZM104.5781 125.5156 Q104.5781 125.9688 104.7891 126.3906 Q105 126.8125 105.4219 127.0469 Q105.8438 127.2812 106.3281 127.2812 Q107.0781 127.2812 107.5703 126.7969 Q108.0625 126.3125 108.0625 125.5625 Q108.0625 124.7969 107.5625 124.2969 Q107.0625 123.7969 106.2969 123.7969 Q105.5469 123.7969 105.0625 124.2891 Q104.5781 124.7812 104.5781 125.5156 ZM110.75 120.8906 Q110.75 120.2188 111.2266 119.7422 Q111.7031 119.2656 112.375 119.2656 Q113.0469 119.2656 113.5234 119.7422 Q114 120.2188 114 120.8906 Q114 121.5625 113.5234 122.0391 Q113.0469 122.5156 112.375 122.5156 Q111.7031 122.5156 111.2266 122.0391 Q110.75 121.5625 110.75 120.8906 ZM111.3906 120.8906 Q111.3906 121.2969 111.6797 121.5859 Q111.9688 121.875 112.375 121.875 Q112.7812 121.875 113.0703 121.5859 Q113.3594 121.2969 113.3594 120.8906 Q113.3594 120.4688 113.0703 120.1797 Q112.7812 119.8906 112.375 119.8906 Q111.9688 119.8906 111.6797 120.1797 Q111.3906 120.4688 111.3906 120.8906 ZM115 128.1406 L117.4844 119.2656 L118.3281 119.2656 L115.8438 128.1406 L115 128.1406 ZM118.375 126.1406 L119.4062 125.9844 Q119.5 126.6094 119.8984 126.9375 Q120.2969 127.2656 121.0312 127.2656 Q121.75 127.2656 122.1016 126.9766 Q122.4531 126.6875 122.4531 126.2812 Q122.4531 125.9219 122.1406 125.7188 Q121.9219 125.5781 121.0625 125.3594 Q119.9062 125.0625 119.4609 124.8516 Q119.0156 124.6406 118.7812 124.2656 Q118.5469 123.8906 118.5469 123.4219 Q118.5469 123.0156 118.7344 122.6562 Q118.9219 122.2969 119.25 122.0625 Q119.5 121.8906 119.9219 121.7656 Q120.3438 121.6406 120.8438 121.6406 Q121.5625 121.6406 122.1172 121.8516 Q122.6719 122.0625 122.9375 122.4219 Q123.2031 122.7812 123.2969 123.375 L122.2656 123.5156 Q122.2031 123.0469 121.8672 122.7734 Q121.5312 122.5 120.9062 122.5 Q120.1875 122.5 119.875 122.7422 Q119.5625 122.9844 119.5625 123.3125 Q119.5625 123.5156 119.6875 123.6719 Q119.8281 123.8438 120.0938 123.9531 Q120.25 124.0156 121.0312 124.2188 Q122.1562 124.5312 122.5938 124.7188 Q123.0312 124.9062 123.2812 125.2656 Q123.5312 125.625 123.5312 126.1719 Q123.5312 126.7031 123.2266 127.1641 Q122.9219 127.625 122.3438 127.8828 Q121.7656 128.1406 121.0312 128.1406 Q119.8125 128.1406 119.1797 127.6328 Q118.5469 127.125 118.375 126.1406 ZM126.0938 128 L126.0938 126.7969 L127.2969 126.7969 L127.2969 128 L126.0938 128 ZM128.8438 122.4531 L128.5469 120.8125 L128.5469 119.4062 L129.75 119.4062 L129.75 120.8125 L129.4844 122.4531 L128.8438 122.4531 ZM130.7812 122.4531 L130.5 120.8125 L130.5 119.4062 L131.7031 119.4062 L131.7031 120.8125 L131.4219 122.4531 L130.7812 122.4531 Z"
         clip-path="url(#clipPath1)"
         stroke="none"
         id="path64"
         inkscape:export-xdpi="300"
         inkscape:export-ydpi="300" />
      <path
         fill="black"
         d="M71.8281 45.6541 L73.2188 48.1072 L72.4375 48.1072 L70.7188 45.6541 L72.4375 43.2166 L73.2344 43.2166 L71.8281 45.6541 ZM73.9062 45.6541 L75.3281 48.1072 L74.5 48.1072 L72.8281 45.6541 L74.5 43.2166 L75.3281 43.2166 L73.9062 45.6541 ZM76.7188 48.4978 L76.7188 42.7947 L77.5781 42.7947 L77.5781 43.6541 Q77.9219 43.0447 78.2031 42.8572 Q78.4844 42.6697 78.8125 42.6697 Q79.3125 42.6697 79.8125 42.9822 L79.4844 43.8728 Q79.125 43.6697 78.7656 43.6697 Q78.4531 43.6697 78.2031 43.8572 Q77.9531 44.0447 77.8438 44.3884 Q77.6875 44.9041 77.6875 45.5134 L77.6875 48.4978 L76.7188 48.4978 ZM84.625 46.6541 L85.625 46.7791 Q85.3906 47.6541 84.75 48.1384 Q84.1094 48.6228 83.125 48.6228 Q81.875 48.6228 81.1406 47.8572 Q80.4062 47.0916 80.4062 45.7009 Q80.4062 44.2478 81.1484 43.4587 Q81.8906 42.6697 83.0625 42.6697 Q84.2188 42.6697 84.9375 43.4431 Q85.6562 44.2166 85.6562 45.6384 Q85.6562 45.7166 85.6562 45.8884 L81.4062 45.8884 Q81.4531 46.8259 81.9297 47.3259 Q82.4062 47.8259 83.125 47.8259 Q83.6562 47.8259 84.0312 47.5525 Q84.4062 47.2791 84.625 46.6541 ZM81.4531 45.0916 L84.6406 45.0916 Q84.5781 44.3728 84.2812 44.0134 Q83.8125 43.4666 83.0781 43.4666 Q82.4062 43.4666 81.9531 43.9119 Q81.5 44.3572 81.4531 45.0916 ZM90.3594 50.6853 L90.3594 47.8884 Q90.1406 48.2009 89.7344 48.4119 Q89.3281 48.6228 88.875 48.6228 Q87.8594 48.6228 87.125 47.8103 Q86.3906 46.9978 86.3906 45.5916 Q86.3906 44.7322 86.6875 44.0525 Q86.9844 43.3728 87.5469 43.0212 Q88.1094 42.6697 88.7969 42.6697 Q89.8438 42.6697 90.4531 43.5603 L90.4531 42.7947 L91.3281 42.7947 L91.3281 50.6853 L90.3594 50.6853 ZM87.375 45.6228 Q87.375 46.7322 87.8359 47.2791 Q88.2969 47.8259 88.9531 47.8259 Q89.5625 47.8259 90.0078 47.3025 Q90.4531 46.7791 90.4531 45.7166 Q90.4531 44.5759 89.9844 43.9978 Q89.5156 43.4197 88.8906 43.4197 Q88.25 43.4197 87.8125 43.9587 Q87.375 44.4978 87.375 45.6228 ZM96.4688 48.4978 L96.4688 47.6541 Q95.7969 48.6228 94.6562 48.6228 Q94.1562 48.6228 93.7109 48.4275 Q93.2656 48.2322 93.0547 47.9431 Q92.8438 47.6541 92.7656 47.2322 Q92.7031 46.9509 92.7031 46.3259 L92.7031 42.7947 L93.6719 42.7947 L93.6719 45.9509 Q93.6719 46.7166 93.7344 46.9822 Q93.8281 47.3572 94.1172 47.5759 Q94.4062 47.7947 94.8438 47.7947 Q95.2812 47.7947 95.6641 47.5681 Q96.0469 47.3416 96.2031 46.9587 Q96.3594 46.5759 96.3594 45.8572 L96.3594 42.7947 L97.3281 42.7947 L97.3281 48.4978 L96.4688 48.4978 ZM98.7344 41.7322 L98.7344 40.6228 L99.7031 40.6228 L99.7031 41.7322 L98.7344 41.7322 ZM98.7344 48.4978 L98.7344 42.7947 L99.7031 42.7947 L99.7031 48.4978 L98.7344 48.4978 ZM100.7188 48.4978 L100.7188 42.7947 L101.5781 42.7947 L101.5781 43.6541 Q101.9219 43.0447 102.2031 42.8572 Q102.4844 42.6697 102.8125 42.6697 Q103.3125 42.6697 103.8125 42.9822 L103.4844 43.8728 Q103.125 43.6697 102.7656 43.6697 Q102.4531 43.6697 102.2031 43.8572 Q101.9531 44.0447 101.8438 44.3884 Q101.6875 44.9041 101.6875 45.5134 L101.6875 48.4978 L100.7188 48.4978 ZM108.625 46.6541 L109.625 46.7791 Q109.3906 47.6541 108.75 48.1384 Q108.1094 48.6228 107.125 48.6228 Q105.875 48.6228 105.1406 47.8572 Q104.4062 47.0916 104.4062 45.7009 Q104.4062 44.2478 105.1484 43.4587 Q105.8906 42.6697 107.0625 42.6697 Q108.2188 42.6697 108.9375 43.4431 Q109.6562 44.2166 109.6562 45.6384 Q109.6562 45.7166 109.6562 45.8884 L105.4062 45.8884 Q105.4531 46.8259 105.9297 47.3259 Q106.4062 47.8259 107.125 47.8259 Q107.6562 47.8259 108.0312 47.5525 Q108.4062 47.2791 108.625 46.6541 ZM105.4531 45.0916 L108.6406 45.0916 Q108.5781 44.3728 108.2812 44.0134 Q107.8125 43.4666 107.0781 43.4666 Q106.4062 43.4666 105.9531 43.9119 Q105.5 44.3572 105.4531 45.0916 ZM110.7188 48.4978 L110.7188 42.7947 L111.5938 42.7947 L111.5938 43.5916 Q111.8594 43.1697 112.3047 42.9197 Q112.75 42.6697 113.3125 42.6697 Q113.9531 42.6697 114.3594 42.9275 Q114.7656 43.1853 114.9375 43.6697 Q115.6094 42.6697 116.6875 42.6697 Q117.5469 42.6697 118 43.1384 Q118.4531 43.6072 118.4531 44.5759 L118.4531 48.4978 L117.5 48.4978 L117.5 44.9041 Q117.5 44.3259 117.4062 44.0681 Q117.3125 43.8103 117.0625 43.6541 Q116.8125 43.4978 116.4844 43.4978 Q115.875 43.4978 115.4766 43.9041 Q115.0781 44.3103 115.0781 45.1853 L115.0781 48.4978 L114.1094 48.4978 L114.1094 44.7947 Q114.1094 44.1541 113.875 43.8259 Q113.6406 43.4978 113.1094 43.4978 Q112.7031 43.4978 112.3516 43.7166 Q112 43.9353 111.8438 44.3494 Q111.6875 44.7634 111.6875 45.5447 L111.6875 48.4978 L110.7188 48.4978 ZM122.625 46.6541 L123.625 46.7791 Q123.3906 47.6541 122.75 48.1384 Q122.1094 48.6228 121.125 48.6228 Q119.875 48.6228 119.1406 47.8572 Q118.4062 47.0916 118.4062 45.7009 Q118.4062 44.2478 119.1484 43.4587 Q119.8906 42.6697 121.0625 42.6697 Q122.2188 42.6697 122.9375 43.4431 Q123.6562 44.2166 123.6562 45.6384 Q123.6562 45.7166 123.6562 45.8884 L119.4062 45.8884 Q119.4531 46.8259 119.9297 47.3259 Q120.4062 47.8259 121.125 47.8259 Q121.6562 47.8259 122.0312 47.5525 Q122.4062 47.2791 122.625 46.6541 ZM119.4531 45.0916 L122.6406 45.0916 Q122.5781 44.3728 122.2812 44.0134 Q121.8125 43.4666 121.0781 43.4666 Q120.4062 43.4666 119.9531 43.9119 Q119.5 44.3572 119.4531 45.0916 ZM124.7188 48.4978 L124.7188 42.7947 L125.5938 42.7947 L125.5938 43.6072 Q126.2188 42.6697 127.4062 42.6697 Q127.9219 42.6697 128.3594 42.8494 Q128.7969 43.0291 129.0078 43.3337 Q129.2188 43.6384 129.3125 44.0447 Q129.3594 44.3259 129.3594 44.9978 L129.3594 48.4978 L128.3906 48.4978 L128.3906 45.0291 Q128.3906 44.4353 128.2812 44.1462 Q128.1719 43.8572 127.8828 43.6775 Q127.5938 43.4978 127.2031 43.4978 Q126.5938 43.4978 126.1406 43.8884 Q125.6875 44.2791 125.6875 45.3884 L125.6875 48.4978 L124.7188 48.4978 ZM132.8438 47.6384 L132.9688 48.4822 Q132.5625 48.5759 132.25 48.5759 Q131.7188 48.5759 131.4297 48.4041 Q131.1406 48.2322 131.0234 47.9666 Q130.9062 47.7009 130.9062 46.8259 L130.9062 43.5447 L130.1875 43.5447 L130.1875 42.7947 L130.9062 42.7947 L130.9062 41.3884 L131.8594 40.7947 L131.8594 42.7947 L132.8438 42.7947 L132.8438 43.5447 L131.8594 43.5447 L131.8594 46.8884 Q131.8594 47.2947 131.9141 47.4119 Q131.9688 47.5291 132.0859 47.5994 Q132.2031 47.6697 132.4062 47.6697 Q132.5781 47.6697 132.8438 47.6384 ZM137.25 45.6541 L135.8438 43.2166 L136.6406 43.2166 L138.3594 45.6541 L136.6406 48.1072 L135.8594 48.1072 L137.25 45.6541 ZM135.1719 45.6541 L133.75 43.2166 L134.5625 43.2166 L136.25 45.6541 L134.5625 48.1072 L133.75 48.1072 L135.1719 45.6541 Z"
         clip-path="url(#clipPath1)"
         stroke="none"
         id="path66"
         inkscape:export-xdpi="300"
         inkscape:export-ydpi="300" />
      <path
         fill="black"
         d="M58.8125 63.4978 L56 55.6228 L57.7188 55.6228 L59.7188 61.4509 L61.6406 55.6228 L63.3281 55.6228 L60.5 63.4978 L58.8125 63.4978 ZM64.7969 57.0134 L64.7969 55.6228 L66.2969 55.6228 L66.2969 57.0134 L64.7969 57.0134 ZM64.7969 63.4978 L64.7969 57.7947 L66.2969 57.7947 L66.2969 63.4978 L64.7969 63.4978 ZM70.4062 57.7947 L70.4062 58.9978 L69.375 58.9978 L69.375 61.2947 Q69.375 61.9978 69.4062 62.115 Q69.4375 62.2322 69.5391 62.3025 Q69.6406 62.3728 69.7969 62.3728 Q70 62.3728 70.4062 62.2322 L70.5312 63.4041 Q70 63.6228 69.3438 63.6228 Q68.9219 63.6228 68.5938 63.49 Q68.2656 63.3572 68.1172 63.1384 Q67.9688 62.9197 67.9062 62.5447 Q67.8594 62.2791 67.8594 61.4822 L67.8594 58.9978 L67.1719 58.9978 L67.1719 57.7947 L67.8594 57.7947 L67.8594 56.6541 L69.375 55.7791 L69.375 57.7947 L70.4062 57.7947 ZM75.0938 61.6853 L76.5938 61.9353 Q76.3125 62.7634 75.6875 63.1931 Q75.0625 63.6228 74.1094 63.6228 Q72.625 63.6228 71.9062 62.6541 Q71.3438 61.8728 71.3438 60.6853 Q71.3438 59.2634 72.0859 58.4666 Q72.8281 57.6697 73.9688 57.6697 Q75.2344 57.6697 75.9688 58.5056 Q76.7031 59.3416 76.6719 61.0759 L72.8906 61.0759 Q72.9062 61.7478 73.2578 62.1228 Q73.6094 62.4978 74.125 62.4978 Q74.4844 62.4978 74.7266 62.3025 Q74.9688 62.1072 75.0938 61.6853 ZM75.1719 60.1541 Q75.1562 59.4978 74.8359 59.1619 Q74.5156 58.8259 74.0625 58.8259 Q73.5625 58.8259 73.2344 59.1853 Q72.9219 59.5447 72.9219 60.1541 L75.1719 60.1541 ZM78.2656 61.8728 L79.7656 61.6384 Q79.875 62.0759 80.1641 62.3025 Q80.4531 62.5291 80.9844 62.5291 Q81.5781 62.5291 81.875 62.3259 Q82.0781 62.1697 82.0781 61.9197 Q82.0781 61.7478 81.9688 61.6384 Q81.8438 61.5291 81.4531 61.4353 Q79.6406 61.0291 79.1406 60.7009 Q78.4688 60.2322 78.4688 59.4197 Q78.4688 58.6697 79.0547 58.1697 Q79.6406 57.6697 80.875 57.6697 Q82.0469 57.6697 82.6094 58.0447 Q83.1719 58.4197 83.3906 59.1697 L81.9688 59.4353 Q81.875 59.1072 81.625 58.9275 Q81.375 58.7478 80.8906 58.7478 Q80.2969 58.7478 80.0469 58.9197 Q79.875 59.0291 79.875 59.2166 Q79.875 59.3884 80.0156 59.4978 Q80.2188 59.6541 81.4297 59.9275 Q82.6406 60.2009 83.1094 60.5916 Q83.5938 60.9978 83.5938 61.7166 Q83.5938 62.4978 82.9375 63.0603 Q82.2812 63.6228 80.9844 63.6228 Q79.8281 63.6228 79.1484 63.1541 Q78.4688 62.6853 78.2656 61.8728 ZM85.2656 61.8728 L86.7656 61.6384 Q86.875 62.0759 87.1641 62.3025 Q87.4531 62.5291 87.9844 62.5291 Q88.5781 62.5291 88.875 62.3259 Q89.0781 62.1697 89.0781 61.9197 Q89.0781 61.7478 88.9688 61.6384 Q88.8438 61.5291 88.4531 61.4353 Q86.6406 61.0291 86.1406 60.7009 Q85.4688 60.2322 85.4688 59.4197 Q85.4688 58.6697 86.0547 58.1697 Q86.6406 57.6697 87.875 57.6697 Q89.0469 57.6697 89.6094 58.0447 Q90.1719 58.4197 90.3906 59.1697 L88.9688 59.4353 Q88.875 59.1072 88.625 58.9275 Q88.375 58.7478 87.8906 58.7478 Q87.2969 58.7478 87.0469 58.9197 Q86.875 59.0291 86.875 59.2166 Q86.875 59.3884 87.0156 59.4978 Q87.2188 59.6541 88.4297 59.9275 Q89.6406 60.2009 90.1094 60.5916 Q90.5938 60.9978 90.5938 61.7166 Q90.5938 62.4978 89.9375 63.0603 Q89.2812 63.6228 87.9844 63.6228 Q86.8281 63.6228 86.1484 63.1541 Q85.4688 62.6853 85.2656 61.8728 ZM96.0938 61.6853 L97.5938 61.9353 Q97.3125 62.7634 96.6875 63.1931 Q96.0625 63.6228 95.1094 63.6228 Q93.625 63.6228 92.9062 62.6541 Q92.3438 61.8728 92.3438 60.6853 Q92.3438 59.2634 93.0859 58.4666 Q93.8281 57.6697 94.9688 57.6697 Q96.2344 57.6697 96.9688 58.5056 Q97.7031 59.3416 97.6719 61.0759 L93.8906 61.0759 Q93.9062 61.7478 94.2578 62.1228 Q94.6094 62.4978 95.125 62.4978 Q95.4844 62.4978 95.7266 62.3025 Q95.9688 62.1072 96.0938 61.6853 ZM96.1719 60.1541 Q96.1562 59.4978 95.8359 59.1619 Q95.5156 58.8259 95.0625 58.8259 Q94.5625 58.8259 94.2344 59.1853 Q93.9219 59.5447 93.9219 60.1541 L96.1719 60.1541 ZM103.9219 59.5291 L102.5469 59.2791 Q102.7812 58.4666 103.3438 58.0681 Q103.9062 57.6697 105.0156 57.6697 Q106.0312 57.6697 106.5234 57.9041 Q107.0156 58.1384 107.2188 58.5056 Q107.4219 58.8728 107.4219 59.8572 L107.4062 61.6228 Q107.4062 62.3728 107.4766 62.7322 Q107.5469 63.0916 107.75 63.4978 L106.25 63.4978 Q106.1875 63.3416 106.1094 63.0447 Q106.0781 62.9197 106.0625 62.8728 Q105.6719 63.2478 105.2266 63.4353 Q104.7812 63.6228 104.2812 63.6228 Q103.4062 63.6228 102.8984 63.1462 Q102.3906 62.6697 102.3906 61.9353 Q102.3906 61.4509 102.625 61.0759 Q102.8594 60.7009 103.2734 60.4978 Q103.6875 60.2947 104.4688 60.1384 Q105.5312 59.9509 105.9375 59.7791 L105.9375 59.6228 Q105.9375 59.1853 105.7188 59.0056 Q105.5 58.8259 104.9062 58.8259 Q104.5156 58.8259 104.2891 58.9822 Q104.0625 59.1384 103.9219 59.5291 ZM105.9375 60.7634 Q105.6406 60.8572 105.0156 60.99 Q104.3906 61.1228 104.2031 61.2478 Q103.9062 61.4666 103.9062 61.7791 Q103.9062 62.1072 104.1406 62.3337 Q104.375 62.5603 104.7344 62.5603 Q105.1406 62.5603 105.5156 62.2947 Q105.7969 62.0916 105.875 61.7947 Q105.9375 61.6072 105.9375 61.0603 L105.9375 60.7634 ZM113.9844 63.4978 L112.4688 63.4978 L112.4688 60.5916 Q112.4688 59.6697 112.375 59.3962 Q112.2812 59.1228 112.0625 58.9744 Q111.8438 58.8259 111.5312 58.8259 Q111.1406 58.8259 110.8281 59.0369 Q110.5156 59.2478 110.3984 59.5994 Q110.2812 59.9509 110.2812 60.9197 L110.2812 63.4978 L108.7812 63.4978 L108.7812 57.7947 L110.1875 57.7947 L110.1875 58.6384 Q110.9219 57.6697 112.0625 57.6697 Q112.5625 57.6697 112.9766 57.8494 Q113.3906 58.0291 113.6016 58.3025 Q113.8125 58.5759 113.8984 58.9353 Q113.9844 59.2947 113.9844 59.9509 L113.9844 63.4978 ZM115.6562 63.8728 L117.375 64.0759 Q117.4219 64.3884 117.5781 64.4978 Q117.7812 64.6541 118.25 64.6541 Q118.8438 64.6541 119.1406 64.4822 Q119.3281 64.3572 119.4375 64.1072 Q119.5 63.9041 119.5 63.4041 L119.5 62.5759 Q118.8281 63.4978 117.7969 63.4978 Q116.6562 63.4978 115.9844 62.5291 Q115.4531 61.7634 115.4531 60.6072 Q115.4531 59.1853 116.1406 58.4275 Q116.8281 57.6697 117.8594 57.6697 Q118.9219 57.6697 119.6094 58.5916 L119.6094 57.7947 L121.0156 57.7947 L121.0156 62.9197 Q121.0156 63.9197 120.8516 64.4197 Q120.6875 64.9197 120.3828 65.2087 Q120.0781 65.4978 119.5781 65.6541 Q119.0781 65.8103 118.3125 65.8103 Q116.8594 65.8103 116.25 65.3181 Q115.6406 64.8259 115.6406 64.0603 Q115.6406 63.9822 115.6562 63.8728 ZM117 60.5291 Q117 61.4353 117.3516 61.8572 Q117.7031 62.2791 118.2188 62.2791 Q118.7656 62.2791 119.1484 61.8494 Q119.5312 61.4197 119.5312 60.5603 Q119.5312 59.6853 119.1641 59.2556 Q118.7969 58.8259 118.25 58.8259 Q117.7031 58.8259 117.3516 59.2478 Q117 59.6697 117 60.5291 ZM126.5469 63.4978 L126.5469 62.6384 Q126.2344 63.1072 125.7266 63.365 Q125.2188 63.6228 124.6562 63.6228 Q124.0781 63.6228 123.625 63.3728 Q123.1719 63.1228 122.9609 62.6619 Q122.75 62.2009 122.75 61.4041 L122.75 57.7947 L124.2656 57.7947 L124.2656 60.4197 Q124.2656 61.6228 124.3516 61.8884 Q124.4375 62.1541 124.6562 62.3181 Q124.875 62.4822 125.2188 62.4822 Q125.5938 62.4822 125.9062 62.2712 Q126.2188 62.0603 126.3281 61.74 Q126.4375 61.4197 126.4375 60.2009 L126.4375 57.7947 L127.9531 57.7947 L127.9531 63.4978 L126.5469 63.4978 ZM129.7969 63.4978 L129.7969 55.6228 L131.2969 55.6228 L131.2969 63.4978 L129.7969 63.4978 ZM133.9219 59.5291 L132.5469 59.2791 Q132.7812 58.4666 133.3438 58.0681 Q133.9062 57.6697 135.0156 57.6697 Q136.0312 57.6697 136.5234 57.9041 Q137.0156 58.1384 137.2188 58.5056 Q137.4219 58.8728 137.4219 59.8572 L137.4062 61.6228 Q137.4062 62.3728 137.4766 62.7322 Q137.5469 63.0916 137.75 63.4978 L136.25 63.4978 Q136.1875 63.3416 136.1094 63.0447 Q136.0781 62.9197 136.0625 62.8728 Q135.6719 63.2478 135.2266 63.4353 Q134.7812 63.6228 134.2812 63.6228 Q133.4062 63.6228 132.8984 63.1462 Q132.3906 62.6697 132.3906 61.9353 Q132.3906 61.4509 132.625 61.0759 Q132.8594 60.7009 133.2734 60.4978 Q133.6875 60.2947 134.4688 60.1384 Q135.5312 59.9509 135.9375 59.7791 L135.9375 59.6228 Q135.9375 59.1853 135.7188 59.0056 Q135.5 58.8259 134.9062 58.8259 Q134.5156 58.8259 134.2891 58.9822 Q134.0625 59.1384 133.9219 59.5291 ZM135.9375 60.7634 Q135.6406 60.8572 135.0156 60.99 Q134.3906 61.1228 134.2031 61.2478 Q133.9062 61.4666 133.9062 61.7791 Q133.9062 62.1072 134.1406 62.3337 Q134.375 62.5603 134.7344 62.5603 Q135.1406 62.5603 135.5156 62.2947 Q135.7969 62.0916 135.875 61.7947 Q135.9375 61.6072 135.9375 61.0603 L135.9375 60.7634 ZM138.7969 57.0134 L138.7969 55.6228 L140.2969 55.6228 L140.2969 57.0134 L138.7969 57.0134 ZM138.7969 63.4978 L138.7969 57.7947 L140.2969 57.7947 L140.2969 63.4978 L138.7969 63.4978 ZM143.2344 63.4978 L141.7188 63.4978 L141.7188 57.7947 L143.125 57.7947 L143.125 58.6072 Q143.4844 58.0291 143.7734 57.8494 Q144.0625 57.6697 144.4219 57.6697 Q144.9375 57.6697 145.4219 57.9509 L144.9531 59.2634 Q144.5781 59.0134 144.25 59.0134 Q143.9219 59.0134 143.7031 59.1931 Q143.4844 59.3728 143.3594 59.8259 Q143.2344 60.2791 143.2344 61.7322 L143.2344 63.4978 ZM150.0938 61.6853 L151.5938 61.9353 Q151.3125 62.7634 150.6875 63.1931 Q150.0625 63.6228 149.1094 63.6228 Q147.625 63.6228 146.9062 62.6541 Q146.3438 61.8728 146.3438 60.6853 Q146.3438 59.2634 147.0859 58.4666 Q147.8281 57.6697 148.9688 57.6697 Q150.2344 57.6697 150.9688 58.5056 Q151.7031 59.3416 151.6719 61.0759 L147.8906 61.0759 Q147.9062 61.7478 148.2578 62.1228 Q148.6094 62.4978 149.125 62.4978 Q149.4844 62.4978 149.7266 62.3025 Q149.9688 62.1072 150.0938 61.6853 ZM150.1719 60.1541 Q150.1562 59.4978 149.8359 59.1619 Q149.5156 58.8259 149.0625 58.8259 Q148.5625 58.8259 148.2344 59.1853 Q147.9219 59.5447 147.9219 60.1541 L150.1719 60.1541 Z"
         clip-path="url(#clipPath1)"
         stroke="none"
         id="path68"
         inkscape:export-xdpi="300"
         inkscape:export-ydpi="300" />
      <rect
         x="38"
         y="157"
         clip-path="url(#clipPath1)"
         fill="rgb(178,178,178)"
         width="140"
         height="72"
         stroke="none"
         id="rect70"
         inkscape:export-xdpi="300"
         inkscape:export-ydpi="300" />
      <rect
         x="35"
         y="154"
         clip-path="url(#clipPath1)"
         fill="url(#linearGradient2)"
         width="140"
         height="72"
         stroke="none"
         id="rect72"
         inkscape:export-xdpi="300"
         inkscape:export-ydpi="300" />
      <rect
         x="35"
         y="154"
         clip-path="url(#clipPath1)"
         fill="none"
         width="140"
         height="72"
         stroke="rgb(153,121,92)"
         id="rect74"
         inkscape:export-xdpi="300"
         inkscape:export-ydpi="300" />
      <line
         clip-path="url(#clipPath1)"
         fill="none"
         x1="35"
         x2="175"
         y1="187"
         y2="187"
         stroke="rgb(153,121,92)"
         id="line76"
         inkscape:export-xdpi="300"
         inkscape:export-ydpi="300" />
      <path
         fill="black"
         text-rendering="optimizeLegibility"
         d="M39.125 202 L39.125 193.4062 L40.25 193.4062 L40.25 202 L39.125 202 ZM45.8281 202 L45.8281 201.2188 Q45.2344 202.1406 44.0938 202.1406 Q43.3438 202.1406 42.7188 201.7266 Q42.0938 201.3125 41.75 200.5781 Q41.4062 199.8438 41.4062 198.8906 Q41.4062 197.9688 41.7188 197.2031 Q42.0312 196.4375 42.6562 196.0391 Q43.2812 195.6406 44.0469 195.6406 Q44.6094 195.6406 45.0469 195.875 Q45.4844 196.1094 45.7656 196.4844 L45.7656 193.4062 L46.8125 193.4062 L46.8125 202 L45.8281 202 ZM42.5 198.8906 Q42.5 200.0938 43 200.6797 Q43.5 201.2656 44.1875 201.2656 Q44.875 201.2656 45.3594 200.7031 Q45.8438 200.1406 45.8438 198.9844 Q45.8438 197.7031 45.3516 197.1094 Q44.8594 196.5156 44.1406 196.5156 Q43.4375 196.5156 42.9688 197.0859 Q42.5 197.6562 42.5 198.8906 ZM57.3438 196.9531 L51.6719 196.9531 L51.6719 195.9688 L57.3438 195.9688 L57.3438 196.9531 ZM57.3438 199.5625 L51.6719 199.5625 L51.6719 198.5781 L57.3438 198.5781 L57.3438 199.5625 ZM61.8438 196.4531 L61.5469 194.8125 L61.5469 193.4062 L62.75 193.4062 L62.75 194.8125 L62.4844 196.4531 L61.8438 196.4531 ZM63.7812 196.4531 L63.5 194.8125 L63.5 193.4062 L64.7031 193.4062 L64.7031 194.8125 L64.4219 196.4531 L63.7812 196.4531 ZM71.0469 200.9844 L71.0469 202 L65.3594 202 Q65.3594 201.625 65.4844 201.2656 Q65.7031 200.6875 66.1797 200.125 Q66.6562 199.5625 67.5625 198.8281 Q68.9688 197.6719 69.4609 197 Q69.9531 196.3281 69.9531 195.7344 Q69.9531 195.1094 69.5 194.6797 Q69.0469 194.25 68.3281 194.25 Q67.5625 194.25 67.1094 194.7031 Q66.6562 195.1562 66.6406 195.9688 L65.5625 195.8594 Q65.6719 194.6406 66.3984 194.0078 Q67.125 193.375 68.3594 193.375 Q69.5938 193.375 70.3125 194.0625 Q71.0312 194.75 71.0312 195.7656 Q71.0312 196.2812 70.8203 196.7734 Q70.6094 197.2656 70.1172 197.8203 Q69.625 198.375 68.5 199.3281 Q67.5469 200.125 67.2734 200.4141 Q67 200.7031 66.8281 200.9844 L71.0469 200.9844 ZM73.0938 202 L73.0938 200.7969 L74.2969 200.7969 L74.2969 202 L73.0938 202 ZM81.0469 200.9844 L81.0469 202 L75.3594 202 Q75.3594 201.625 75.4844 201.2656 Q75.7031 200.6875 76.1797 200.125 Q76.6562 199.5625 77.5625 198.8281 Q78.9688 197.6719 79.4609 197 Q79.9531 196.3281 79.9531 195.7344 Q79.9531 195.1094 79.5 194.6797 Q79.0469 194.25 78.3281 194.25 Q77.5625 194.25 77.1094 194.7031 Q76.6562 195.1562 76.6406 195.9688 L75.5625 195.8594 Q75.6719 194.6406 76.3984 194.0078 Q77.125 193.375 78.3594 193.375 Q79.5938 193.375 80.3125 194.0625 Q81.0312 194.75 81.0312 195.7656 Q81.0312 196.2812 80.8203 196.7734 Q80.6094 197.2656 80.1172 197.8203 Q79.625 198.375 78.5 199.3281 Q77.5469 200.125 77.2734 200.4141 Q77 200.7031 76.8281 200.9844 L81.0469 200.9844 ZM83.0938 202 L83.0938 200.7969 L84.2969 200.7969 L84.2969 202 L83.0938 202 ZM89.4688 202 L88.4219 202 L88.4219 195.2812 Q88.0312 195.6406 87.4141 196.0078 Q86.7969 196.375 86.3125 196.5469 L86.3125 195.5312 Q87.1875 195.1094 87.8516 194.5234 Q88.5156 193.9375 88.7969 193.375 L89.4688 193.375 L89.4688 202 ZM92.8438 196.4531 L92.5469 194.8125 L92.5469 193.4062 L93.75 193.4062 L93.75 194.8125 L93.4844 196.4531 L92.8438 196.4531 ZM94.7812 196.4531 L94.5 194.8125 L94.5 193.4062 L95.7031 193.4062 L95.7031 194.8125 L95.4219 196.4531 L94.7812 196.4531 Z"
         clip-path="url(#clipPath1)"
         stroke="none"
         id="path78"
         inkscape:export-xdpi="300"
         inkscape:export-ydpi="300" />
      <path
         fill="black"
         text-rendering="optimizeLegibility"
         d="M41.1094 217 L41.1094 209.4219 L38.2812 209.4219 L38.2812 208.4062 L45.0938 208.4062 L45.0938 209.4219 L42.25 209.4219 L42.25 217 L41.1094 217 ZM50.0469 215 L51.1406 215.125 Q50.8906 216.0781 50.1875 216.6094 Q49.4844 217.1406 48.4062 217.1406 Q47.0469 217.1406 46.2422 216.2969 Q45.4375 215.4531 45.4375 213.9375 Q45.4375 212.375 46.25 211.5078 Q47.0625 210.6406 48.3438 210.6406 Q49.5938 210.6406 50.3828 211.4844 Q51.1719 212.3281 51.1719 213.875 Q51.1719 213.9688 51.1719 214.1562 L46.5312 214.1562 Q46.5938 215.1875 47.1094 215.7266 Q47.625 216.2656 48.4062 216.2656 Q48.9844 216.2656 49.3984 215.9609 Q49.8125 215.6562 50.0469 215 ZM46.5938 213.2969 L50.0625 213.2969 Q50 212.5 49.6719 212.1094 Q49.1562 211.5 48.3594 211.5 Q47.625 211.5 47.1328 211.9844 Q46.6406 212.4688 46.5938 213.2969 ZM52.0938 217 L54.3594 213.7656 L52.2656 210.7812 L53.5781 210.7812 L54.5312 212.2344 Q54.7969 212.6562 54.9688 212.9375 Q55.2188 212.5469 55.4375 212.25 L56.4844 210.7812 L57.75 210.7812 L55.5938 213.7031 L57.9062 217 L56.625 217 L55.3438 215.0625 L55 214.5469 L53.3594 217 L52.0938 217 ZM60.0938 216.0625 L60.25 216.9844 Q59.7969 217.0781 59.4531 217.0781 Q58.875 217.0781 58.5625 216.8984 Q58.25 216.7188 58.1172 216.4219 Q57.9844 216.125 57.9844 215.1719 L57.9844 211.5938 L57.2188 211.5938 L57.2188 210.7812 L57.9844 210.7812 L57.9844 209.2344 L59.0312 208.6094 L59.0312 210.7812 L60.0938 210.7812 L60.0938 211.5938 L59.0312 211.5938 L59.0312 215.2344 Q59.0312 215.6875 59.0859 215.8125 Q59.1406 215.9375 59.2656 216.0156 Q59.3906 216.0938 59.625 216.0938 Q59.8125 216.0938 60.0938 216.0625 ZM69.3438 211.9531 L63.6719 211.9531 L63.6719 210.9688 L69.3438 210.9688 L69.3438 211.9531 ZM69.3438 214.5625 L63.6719 214.5625 L63.6719 213.5781 L69.3438 213.5781 L69.3438 214.5625 ZM73.8438 211.4531 L73.5469 209.8125 L73.5469 208.4062 L74.75 208.4062 L74.75 209.8125 L74.4844 211.4531 L73.8438 211.4531 ZM75.7812 211.4531 L75.5 209.8125 L75.5 208.4062 L76.7031 208.4062 L76.7031 209.8125 L76.4219 211.4531 L75.7812 211.4531 ZM80.1094 217 L80.1094 209.4219 L77.2812 209.4219 L77.2812 208.4062 L84.0938 208.4062 L84.0938 209.4219 L81.25 209.4219 L81.25 217 L80.1094 217 ZM84.5 214.75 L85.6094 214.6562 Q85.7344 215.4688 86.1797 215.875 Q86.625 216.2812 87.2656 216.2812 Q88.0156 216.2812 88.5469 215.7031 Q89.0781 215.125 89.0781 214.1875 Q89.0781 213.2812 88.5703 212.7578 Q88.0625 212.2344 87.2344 212.2344 Q86.7344 212.2344 86.3203 212.4688 Q85.9062 212.7031 85.6719 213.0625 L84.6875 212.9375 L85.5156 208.5312 L89.7969 208.5312 L89.7969 209.5312 L86.3594 209.5312 L85.9062 211.8438 Q86.6719 211.2969 87.5156 211.2969 Q88.6406 211.2969 89.4141 212.0781 Q90.1875 212.8594 90.1875 214.0938 Q90.1875 215.25 89.5156 216.1094 Q88.6875 217.1406 87.2656 217.1406 Q86.0938 217.1406 85.3516 216.4844 Q84.6094 215.8281 84.5 214.75 ZM91.7031 210.4688 Q91.7031 209.5469 92.1641 208.9062 Q92.625 208.2656 93.5 208.2656 Q94.3125 208.2656 94.8438 208.8438 Q95.375 209.4219 95.375 210.5312 Q95.375 211.625 94.8359 212.2109 Q94.2969 212.7969 93.5156 212.7969 Q92.7344 212.7969 92.2188 212.2188 Q91.7031 211.6406 91.7031 210.4688 ZM93.5312 208.9844 Q93.1406 208.9844 92.8828 209.3281 Q92.625 209.6719 92.625 210.5781 Q92.625 211.4062 92.8828 211.7422 Q93.1406 212.0781 93.5312 212.0781 Q93.9375 212.0781 94.1953 211.7344 Q94.4531 211.3906 94.4531 210.5 Q94.4531 209.6562 94.1875 209.3203 Q93.9219 208.9844 93.5312 208.9844 ZM93.5312 217.3125 L98.2344 208.2656 L99.0938 208.2656 L94.4062 217.3125 L93.5312 217.3125 ZM97.25 214.9844 Q97.25 214.0625 97.7109 213.4219 Q98.1719 212.7812 99.0625 212.7812 Q99.875 212.7812 100.4062 213.3516 Q100.9375 213.9219 100.9375 215.0469 Q100.9375 216.1406 100.3984 216.7266 Q99.8594 217.3125 99.0625 217.3125 Q98.2969 217.3125 97.7734 216.7344 Q97.25 216.1562 97.25 214.9844 ZM99.0938 213.5 Q98.6875 213.5 98.4297 213.8438 Q98.1719 214.1875 98.1719 215.0938 Q98.1719 215.9062 98.4375 216.25 Q98.7031 216.5938 99.0938 216.5938 Q99.4844 216.5938 99.75 216.25 Q100.0156 215.9062 100.0156 215 Q100.0156 214.1719 99.75 213.8359 Q99.4844 213.5 99.0938 213.5 Z"
         clip-path="url(#clipPath1)"
         stroke="none"
         id="path80"
         inkscape:export-xdpi="300"
         inkscape:export-ydpi="300" />
      <path
         fill="black"
         text-rendering="optimizeLegibility"
         d="M105.6562 213.25 L105.6562 212.2656 L111.3438 209.8594 L111.3438 210.9062 L106.8281 212.75 L111.3438 214.625 L111.3438 215.6719 L105.6562 213.25 ZM118.875 217 L118.875 214.9375 L115.1562 214.9375 L115.1562 213.9688 L119.0781 208.4062 L119.9375 208.4062 L119.9375 213.9688 L121.0938 213.9688 L121.0938 214.9375 L119.9375 214.9375 L119.9375 217 L118.875 217 ZM118.875 213.9688 L118.875 210.1094 L116.1875 213.9688 L118.875 213.9688 ZM125.375 215.1406 L126.4062 214.9844 Q126.5 215.6094 126.8984 215.9375 Q127.2969 216.2656 128.0312 216.2656 Q128.75 216.2656 129.1016 215.9766 Q129.4531 215.6875 129.4531 215.2812 Q129.4531 214.9219 129.1406 214.7188 Q128.9219 214.5781 128.0625 214.3594 Q126.9062 214.0625 126.4609 213.8516 Q126.0156 213.6406 125.7812 213.2656 Q125.5469 212.8906 125.5469 212.4219 Q125.5469 212.0156 125.7344 211.6562 Q125.9219 211.2969 126.25 211.0625 Q126.5 210.8906 126.9219 210.7656 Q127.3438 210.6406 127.8438 210.6406 Q128.5625 210.6406 129.1172 210.8516 Q129.6719 211.0625 129.9375 211.4219 Q130.2031 211.7812 130.2969 212.375 L129.2656 212.5156 Q129.2031 212.0469 128.8672 211.7734 Q128.5312 211.5 127.9062 211.5 Q127.1875 211.5 126.875 211.7422 Q126.5625 211.9844 126.5625 212.3125 Q126.5625 212.5156 126.6875 212.6719 Q126.8281 212.8438 127.0938 212.9531 Q127.25 213.0156 128.0312 213.2188 Q129.1562 213.5312 129.5938 213.7188 Q130.0312 213.9062 130.2812 214.2656 Q130.5312 214.625 130.5312 215.1719 Q130.5312 215.7031 130.2266 216.1641 Q129.9219 216.625 129.3438 216.8828 Q128.7656 217.1406 128.0312 217.1406 Q126.8125 217.1406 126.1797 216.6328 Q125.5469 216.125 125.375 215.1406 ZM133.0938 217 L133.0938 215.7969 L134.2969 215.7969 L134.2969 217 L133.0938 217 ZM138.8438 211.4531 L138.5469 209.8125 L138.5469 208.4062 L139.75 208.4062 L139.75 209.8125 L139.4844 211.4531 L138.8438 211.4531 ZM140.7812 211.4531 L140.5 209.8125 L140.5 208.4062 L141.7031 208.4062 L141.7031 209.8125 L141.4219 211.4531 L140.7812 211.4531 Z"
         clip-path="url(#clipPath1)"
         stroke="none"
         id="path82"
         inkscape:export-xdpi="300"
         inkscape:export-ydpi="300" />
      <path
         fill="black"
         d="M71.8281 164.6541 L73.2188 167.1072 L72.4375 167.1072 L70.7188 164.6541 L72.4375 162.2166 L73.2344 162.2166 L71.8281 164.6541 ZM73.9062 164.6541 L75.3281 167.1072 L74.5 167.1072 L72.8281 164.6541 L74.5 162.2166 L75.3281 162.2166 L73.9062 164.6541 ZM76.7188 167.4978 L76.7188 161.7947 L77.5781 161.7947 L77.5781 162.6541 Q77.9219 162.0447 78.2031 161.8572 Q78.4844 161.6697 78.8125 161.6697 Q79.3125 161.6697 79.8125 161.9822 L79.4844 162.8728 Q79.125 162.6697 78.7656 162.6697 Q78.4531 162.6697 78.2031 162.8572 Q77.9531 163.0447 77.8438 163.3884 Q77.6875 163.9041 77.6875 164.5134 L77.6875 167.4978 L76.7188 167.4978 ZM84.625 165.6541 L85.625 165.7791 Q85.3906 166.6541 84.75 167.1384 Q84.1094 167.6228 83.125 167.6228 Q81.875 167.6228 81.1406 166.8572 Q80.4062 166.0916 80.4062 164.7009 Q80.4062 163.2478 81.1484 162.4587 Q81.8906 161.6697 83.0625 161.6697 Q84.2188 161.6697 84.9375 162.4431 Q85.6562 163.2166 85.6562 164.6384 Q85.6562 164.7166 85.6562 164.8884 L81.4062 164.8884 Q81.4531 165.8259 81.9297 166.3259 Q82.4062 166.8259 83.125 166.8259 Q83.6562 166.8259 84.0312 166.5525 Q84.4062 166.2791 84.625 165.6541 ZM81.4531 164.0916 L84.6406 164.0916 Q84.5781 163.3728 84.2812 163.0134 Q83.8125 162.4666 83.0781 162.4666 Q82.4062 162.4666 81.9531 162.9119 Q81.5 163.3572 81.4531 164.0916 ZM90.3594 169.6853 L90.3594 166.8884 Q90.1406 167.2009 89.7344 167.4119 Q89.3281 167.6228 88.875 167.6228 Q87.8594 167.6228 87.125 166.8103 Q86.3906 165.9978 86.3906 164.5916 Q86.3906 163.7322 86.6875 163.0525 Q86.9844 162.3728 87.5469 162.0212 Q88.1094 161.6697 88.7969 161.6697 Q89.8438 161.6697 90.4531 162.5603 L90.4531 161.7947 L91.3281 161.7947 L91.3281 169.6853 L90.3594 169.6853 ZM87.375 164.6228 Q87.375 165.7322 87.8359 166.2791 Q88.2969 166.8259 88.9531 166.8259 Q89.5625 166.8259 90.0078 166.3025 Q90.4531 165.7791 90.4531 164.7166 Q90.4531 163.5759 89.9844 162.9978 Q89.5156 162.4197 88.8906 162.4197 Q88.25 162.4197 87.8125 162.9587 Q87.375 163.4978 87.375 164.6228 ZM96.4688 167.4978 L96.4688 166.6541 Q95.7969 167.6228 94.6562 167.6228 Q94.1562 167.6228 93.7109 167.4275 Q93.2656 167.2322 93.0547 166.9431 Q92.8438 166.6541 92.7656 166.2322 Q92.7031 165.9509 92.7031 165.3259 L92.7031 161.7947 L93.6719 161.7947 L93.6719 164.9509 Q93.6719 165.7166 93.7344 165.9822 Q93.8281 166.3572 94.1172 166.5759 Q94.4062 166.7947 94.8438 166.7947 Q95.2812 166.7947 95.6641 166.5681 Q96.0469 166.3416 96.2031 165.9587 Q96.3594 165.5759 96.3594 164.8572 L96.3594 161.7947 L97.3281 161.7947 L97.3281 167.4978 L96.4688 167.4978 ZM98.7344 160.7322 L98.7344 159.6228 L99.7031 159.6228 L99.7031 160.7322 L98.7344 160.7322 ZM98.7344 167.4978 L98.7344 161.7947 L99.7031 161.7947 L99.7031 167.4978 L98.7344 167.4978 ZM100.7188 167.4978 L100.7188 161.7947 L101.5781 161.7947 L101.5781 162.6541 Q101.9219 162.0447 102.2031 161.8572 Q102.4844 161.6697 102.8125 161.6697 Q103.3125 161.6697 103.8125 161.9822 L103.4844 162.8728 Q103.125 162.6697 102.7656 162.6697 Q102.4531 162.6697 102.2031 162.8572 Q101.9531 163.0447 101.8438 163.3884 Q101.6875 163.9041 101.6875 164.5134 L101.6875 167.4978 L100.7188 167.4978 ZM108.625 165.6541 L109.625 165.7791 Q109.3906 166.6541 108.75 167.1384 Q108.1094 167.6228 107.125 167.6228 Q105.875 167.6228 105.1406 166.8572 Q104.4062 166.0916 104.4062 164.7009 Q104.4062 163.2478 105.1484 162.4587 Q105.8906 161.6697 107.0625 161.6697 Q108.2188 161.6697 108.9375 162.4431 Q109.6562 163.2166 109.6562 164.6384 Q109.6562 164.7166 109.6562 164.8884 L105.4062 164.8884 Q105.4531 165.8259 105.9297 166.3259 Q106.4062 166.8259 107.125 166.8259 Q107.6562 166.8259 108.0312 166.5525 Q108.4062 166.2791 108.625 165.6541 ZM105.4531 164.0916 L108.6406 164.0916 Q108.5781 163.3728 108.2812 163.0134 Q107.8125 162.4666 107.0781 162.4666 Q106.4062 162.4666 105.9531 162.9119 Q105.5 163.3572 105.4531 164.0916 ZM110.7188 167.4978 L110.7188 161.7947 L111.5938 161.7947 L111.5938 162.5916 Q111.8594 162.1697 112.3047 161.9197 Q112.75 161.6697 113.3125 161.6697 Q113.9531 161.6697 114.3594 161.9275 Q114.7656 162.1853 114.9375 162.6697 Q115.6094 161.6697 116.6875 161.6697 Q117.5469 161.6697 118 162.1384 Q118.4531 162.6072 118.4531 163.5759 L118.4531 167.4978 L117.5 167.4978 L117.5 163.9041 Q117.5 163.3259 117.4062 163.0681 Q117.3125 162.8103 117.0625 162.6541 Q116.8125 162.4978 116.4844 162.4978 Q115.875 162.4978 115.4766 162.9041 Q115.0781 163.3103 115.0781 164.1853 L115.0781 167.4978 L114.1094 167.4978 L114.1094 163.7947 Q114.1094 163.1541 113.875 162.8259 Q113.6406 162.4978 113.1094 162.4978 Q112.7031 162.4978 112.3516 162.7166 Q112 162.9353 111.8438 163.3494 Q111.6875 163.7634 111.6875 164.5447 L111.6875 167.4978 L110.7188 167.4978 ZM122.625 165.6541 L123.625 165.7791 Q123.3906 166.6541 122.75 167.1384 Q122.1094 167.6228 121.125 167.6228 Q119.875 167.6228 119.1406 166.8572 Q118.4062 166.0916 118.4062 164.7009 Q118.4062 163.2478 119.1484 162.4587 Q119.8906 161.6697 121.0625 161.6697 Q122.2188 161.6697 122.9375 162.4431 Q123.6562 163.2166 123.6562 164.6384 Q123.6562 164.7166 123.6562 164.8884 L119.4062 164.8884 Q119.4531 165.8259 119.9297 166.3259 Q120.4062 166.8259 121.125 166.8259 Q121.6562 166.8259 122.0312 166.5525 Q122.4062 166.2791 122.625 165.6541 ZM119.4531 164.0916 L122.6406 164.0916 Q122.5781 163.3728 122.2812 163.0134 Q121.8125 162.4666 121.0781 162.4666 Q120.4062 162.4666 119.9531 162.9119 Q119.5 163.3572 119.4531 164.0916 ZM124.7188 167.4978 L124.7188 161.7947 L125.5938 161.7947 L125.5938 162.6072 Q126.2188 161.6697 127.4062 161.6697 Q127.9219 161.6697 128.3594 161.8494 Q128.7969 162.0291 129.0078 162.3337 Q129.2188 162.6384 129.3125 163.0447 Q129.3594 163.3259 129.3594 163.9978 L129.3594 167.4978 L128.3906 167.4978 L128.3906 164.0291 Q128.3906 163.4353 128.2812 163.1462 Q128.1719 162.8572 127.8828 162.6775 Q127.5938 162.4978 127.2031 162.4978 Q126.5938 162.4978 126.1406 162.8884 Q125.6875 163.2791 125.6875 164.3884 L125.6875 167.4978 L124.7188 167.4978 ZM132.8438 166.6384 L132.9688 167.4822 Q132.5625 167.5759 132.25 167.5759 Q131.7188 167.5759 131.4297 167.4041 Q131.1406 167.2322 131.0234 166.9666 Q130.9062 166.7009 130.9062 165.8259 L130.9062 162.5447 L130.1875 162.5447 L130.1875 161.7947 L130.9062 161.7947 L130.9062 160.3884 L131.8594 159.7947 L131.8594 161.7947 L132.8438 161.7947 L132.8438 162.5447 L131.8594 162.5447 L131.8594 165.8884 Q131.8594 166.2947 131.9141 166.4119 Q131.9688 166.5291 132.0859 166.5994 Q132.2031 166.6697 132.4062 166.6697 Q132.5781 166.6697 132.8438 166.6384 ZM137.25 164.6541 L135.8438 162.2166 L136.6406 162.2166 L138.3594 164.6541 L136.6406 167.1072 L135.8594 167.1072 L137.25 164.6541 ZM135.1719 164.6541 L133.75 162.2166 L134.5625 162.2166 L136.25 164.6541 L134.5625 167.1072 L133.75 167.1072 L135.1719 164.6541 Z"
         clip-path="url(#clipPath1)"
         stroke="none"
         id="path84"
         inkscape:export-xdpi="300"
         inkscape:export-ydpi="300" />
      <path
         fill="black"
         d="M54.5781 182.4978 L54.5781 175.9509 L52.2344 175.9509 L52.2344 174.6228 L58.5 174.6228 L58.5 175.9509 L56.1562 175.9509 L56.1562 182.4978 L54.5781 182.4978 ZM63.0938 180.6853 L64.5938 180.9353 Q64.3125 181.7634 63.6875 182.1931 Q63.0625 182.6228 62.1094 182.6228 Q60.625 182.6228 59.9062 181.6541 Q59.3438 180.8728 59.3438 179.6853 Q59.3438 178.2634 60.0859 177.4666 Q60.8281 176.6697 61.9688 176.6697 Q63.2344 176.6697 63.9688 177.5056 Q64.7031 178.3416 64.6719 180.0759 L60.8906 180.0759 Q60.9062 180.7478 61.2578 181.1228 Q61.6094 181.4978 62.125 181.4978 Q62.4844 181.4978 62.7266 181.3025 Q62.9688 181.1072 63.0938 180.6853 ZM63.1719 179.1541 Q63.1562 178.4978 62.8359 178.1619 Q62.5156 177.8259 62.0625 177.8259 Q61.5625 177.8259 61.2344 178.1853 Q60.9219 178.5447 60.9219 179.1541 L63.1719 179.1541 ZM66.6719 176.7947 L68.0625 176.7947 L68.0625 177.5759 Q68.8125 176.6697 69.8438 176.6697 Q70.3906 176.6697 70.7969 176.8962 Q71.2031 177.1228 71.4531 177.5759 Q71.8281 177.1228 72.2656 176.8962 Q72.7031 176.6697 73.2031 176.6697 Q73.8281 176.6697 74.2656 176.9197 Q74.7031 177.1697 74.9062 177.6697 Q75.0625 178.0291 75.0625 178.8572 L75.0625 182.4978 L73.5625 182.4978 L73.5625 179.2322 Q73.5625 178.3884 73.4062 178.1384 Q73.1875 177.8259 72.75 177.8259 Q72.4375 177.8259 72.1562 178.0134 Q71.875 178.2009 71.7578 178.5759 Q71.6406 178.9509 71.6406 179.7634 L71.6406 182.4978 L70.125 182.4978 L70.125 179.3728 Q70.125 178.5447 70.0469 178.3025 Q69.9688 178.0603 69.7969 177.9431 Q69.625 177.8259 69.3281 177.8259 Q68.9844 177.8259 68.7031 178.0134 Q68.4219 178.2009 68.3047 178.5525 Q68.1875 178.9041 68.1875 179.7322 L68.1875 182.4978 L66.6719 182.4978 L66.6719 176.7947 ZM77.75 176.7947 L79.1562 176.7947 L79.1562 177.6384 Q79.4219 177.2009 79.8906 176.9353 Q80.3594 176.6697 80.9375 176.6697 Q81.9219 176.6697 82.6172 177.4431 Q83.3125 178.2166 83.3125 179.6072 Q83.3125 181.0447 82.6172 181.8337 Q81.9219 182.6228 80.9219 182.6228 Q80.4531 182.6228 80.0703 182.4353 Q79.6875 182.2478 79.25 181.7947 L79.25 184.6697 L77.75 184.6697 L77.75 176.7947 ZM79.2344 179.5447 Q79.2344 180.5134 79.6172 180.9744 Q80 181.4353 80.5469 181.4353 Q81.0781 181.4353 81.4297 181.0134 Q81.7812 180.5916 81.7812 179.6228 Q81.7812 178.7322 81.4219 178.2947 Q81.0625 177.8572 80.5312 177.8572 Q79.9688 177.8572 79.6016 178.2869 Q79.2344 178.7166 79.2344 179.5447 ZM84.2656 180.8728 L85.7656 180.6384 Q85.875 181.0759 86.1641 181.3025 Q86.4531 181.5291 86.9844 181.5291 Q87.5781 181.5291 87.875 181.3259 Q88.0781 181.1697 88.0781 180.9197 Q88.0781 180.7478 87.9688 180.6384 Q87.8438 180.5291 87.4531 180.4353 Q85.6406 180.0291 85.1406 179.7009 Q84.4688 179.2322 84.4688 178.4197 Q84.4688 177.6697 85.0547 177.1697 Q85.6406 176.6697 86.875 176.6697 Q88.0469 176.6697 88.6094 177.0447 Q89.1719 177.4197 89.3906 178.1697 L87.9688 178.4353 Q87.875 178.1072 87.625 177.9275 Q87.375 177.7478 86.8906 177.7478 Q86.2969 177.7478 86.0469 177.9197 Q85.875 178.0291 85.875 178.2166 Q85.875 178.3884 86.0156 178.4978 Q86.2188 178.6541 87.4297 178.9275 Q88.6406 179.2009 89.1094 179.5916 Q89.5938 179.9978 89.5938 180.7166 Q89.5938 181.4978 88.9375 182.0603 Q88.2812 182.6228 86.9844 182.6228 Q85.8281 182.6228 85.1484 182.1541 Q84.4688 181.6853 84.2656 180.8728 ZM100.0156 182.4978 L98.625 182.4978 L98.625 181.6541 Q98.2656 182.1541 97.7891 182.3884 Q97.3125 182.6228 96.8438 182.6228 Q95.8594 182.6228 95.1562 181.8337 Q94.4531 181.0447 94.4531 179.6228 Q94.4531 178.1697 95.1328 177.4197 Q95.8125 176.6697 96.8594 176.6697 Q97.8125 176.6697 98.5156 177.4666 L98.5156 174.6228 L100.0156 174.6228 L100.0156 182.4978 ZM96 179.5291 Q96 180.4353 96.25 180.8416 Q96.6094 181.4353 97.2656 181.4353 Q97.7812 181.4353 98.1484 180.99 Q98.5156 180.5447 98.5156 179.6697 Q98.5156 178.6853 98.1641 178.2556 Q97.8125 177.8259 97.25 177.8259 Q96.7188 177.8259 96.3594 178.2478 Q96 178.6697 96 179.5291 ZM105.0938 180.6853 L106.5938 180.9353 Q106.3125 181.7634 105.6875 182.1931 Q105.0625 182.6228 104.1094 182.6228 Q102.625 182.6228 101.9062 181.6541 Q101.3438 180.8728 101.3438 179.6853 Q101.3438 178.2634 102.0859 177.4666 Q102.8281 176.6697 103.9688 176.6697 Q105.2344 176.6697 105.9688 177.5056 Q106.7031 178.3416 106.6719 180.0759 L102.8906 180.0759 Q102.9062 180.7478 103.2578 181.1228 Q103.6094 181.4978 104.125 181.4978 Q104.4844 181.4978 104.7266 181.3025 Q104.9688 181.1072 105.0938 180.6853 ZM105.1719 179.1541 Q105.1562 178.4978 104.8359 178.1619 Q104.5156 177.8259 104.0625 177.8259 Q103.5625 177.8259 103.2344 178.1853 Q102.9219 178.5447 102.9219 179.1541 L105.1719 179.1541 ZM113.2344 182.4978 L111.7188 182.4978 L111.7188 176.7947 L113.125 176.7947 L113.125 177.6072 Q113.4844 177.0291 113.7734 176.8494 Q114.0625 176.6697 114.4219 176.6697 Q114.9375 176.6697 115.4219 176.9509 L114.9531 178.2634 Q114.5781 178.0134 114.25 178.0134 Q113.9219 178.0134 113.7031 178.1931 Q113.4844 178.3728 113.3594 178.8259 Q113.2344 179.2791 113.2344 180.7322 L113.2344 182.4978 ZM120.0938 180.6853 L121.5938 180.9353 Q121.3125 181.7634 120.6875 182.1931 Q120.0625 182.6228 119.1094 182.6228 Q117.625 182.6228 116.9062 181.6541 Q116.3438 180.8728 116.3438 179.6853 Q116.3438 178.2634 117.0859 177.4666 Q117.8281 176.6697 118.9688 176.6697 Q120.2344 176.6697 120.9688 177.5056 Q121.7031 178.3416 121.6719 180.0759 L117.8906 180.0759 Q117.9062 180.7478 118.2578 181.1228 Q118.6094 181.4978 119.125 181.4978 Q119.4844 181.4978 119.7266 181.3025 Q119.9688 181.1072 120.0938 180.6853 ZM120.1719 179.1541 Q120.1562 178.4978 119.8359 178.1619 Q119.5156 177.8259 119.0625 177.8259 Q118.5625 177.8259 118.2344 178.1853 Q117.9219 178.5447 117.9219 179.1541 L120.1719 179.1541 ZM118.0469 175.4978 L118.7969 173.8884 L120.4844 173.8884 L119 175.4978 L118.0469 175.4978 ZM123.75 176.7947 L125.1562 176.7947 L125.1562 177.6384 Q125.4219 177.2009 125.8906 176.9353 Q126.3594 176.6697 126.9375 176.6697 Q127.9219 176.6697 128.6172 177.4431 Q129.3125 178.2166 129.3125 179.6072 Q129.3125 181.0447 128.6172 181.8337 Q127.9219 182.6228 126.9219 182.6228 Q126.4531 182.6228 126.0703 182.4353 Q125.6875 182.2478 125.25 181.7947 L125.25 184.6697 L123.75 184.6697 L123.75 176.7947 ZM125.2344 179.5447 Q125.2344 180.5134 125.6172 180.9744 Q126 181.4353 126.5469 181.4353 Q127.0781 181.4353 127.4297 181.0134 Q127.7812 180.5916 127.7812 179.6228 Q127.7812 178.7322 127.4219 178.2947 Q127.0625 177.8572 126.5312 177.8572 Q125.9688 177.8572 125.6016 178.2869 Q125.2344 178.7166 125.2344 179.5447 ZM130.4375 179.5603 Q130.4375 178.8103 130.8125 178.1072 Q131.1875 177.4041 131.8672 177.0369 Q132.5469 176.6697 133.375 176.6697 Q134.6719 176.6697 135.5 177.5056 Q136.3281 178.3416 136.3281 179.6228 Q136.3281 180.9197 135.4922 181.7712 Q134.6562 182.6228 133.3906 182.6228 Q132.6094 182.6228 131.8984 182.2712 Q131.1875 181.9197 130.8125 181.2322 Q130.4375 180.5447 130.4375 179.5603 ZM131.9844 179.6384 Q131.9844 180.4978 132.3906 180.9509 Q132.7969 181.4041 133.3906 181.4041 Q133.9688 181.4041 134.375 180.9509 Q134.7812 180.4978 134.7812 179.6384 Q134.7812 178.7947 134.375 178.3416 Q133.9688 177.8884 133.3906 177.8884 Q132.7969 177.8884 132.3906 178.3416 Q131.9844 178.7947 131.9844 179.6384 ZM142.9844 182.4978 L141.4688 182.4978 L141.4688 179.5916 Q141.4688 178.6697 141.375 178.3962 Q141.2812 178.1228 141.0625 177.9744 Q140.8438 177.8259 140.5312 177.8259 Q140.1406 177.8259 139.8281 178.0369 Q139.5156 178.2478 139.3984 178.5994 Q139.2812 178.9509 139.2812 179.9197 L139.2812 182.4978 L137.7812 182.4978 L137.7812 176.7947 L139.1875 176.7947 L139.1875 177.6384 Q139.9219 176.6697 141.0625 176.6697 Q141.5625 176.6697 141.9766 176.8494 Q142.3906 177.0291 142.6016 177.3025 Q142.8125 177.5759 142.8984 177.9353 Q142.9844 178.2947 142.9844 178.9509 L142.9844 182.4978 ZM144.2656 180.8728 L145.7656 180.6384 Q145.875 181.0759 146.1641 181.3025 Q146.4531 181.5291 146.9844 181.5291 Q147.5781 181.5291 147.875 181.3259 Q148.0781 181.1697 148.0781 180.9197 Q148.0781 180.7478 147.9688 180.6384 Q147.8438 180.5291 147.4531 180.4353 Q145.6406 180.0291 145.1406 179.7009 Q144.4688 179.2322 144.4688 178.4197 Q144.4688 177.6697 145.0547 177.1697 Q145.6406 176.6697 146.875 176.6697 Q148.0469 176.6697 148.6094 177.0447 Q149.1719 177.4197 149.3906 178.1697 L147.9688 178.4353 Q147.875 178.1072 147.625 177.9275 Q147.375 177.7478 146.8906 177.7478 Q146.2969 177.7478 146.0469 177.9197 Q145.875 178.0291 145.875 178.2166 Q145.875 178.3884 146.0156 178.4978 Q146.2188 178.6541 147.4297 178.9275 Q148.6406 179.2009 149.1094 179.5916 Q149.5938 179.9978 149.5938 180.7166 Q149.5938 181.4978 148.9375 182.0603 Q148.2812 182.6228 146.9844 182.6228 Q145.8281 182.6228 145.1484 182.1541 Q144.4688 181.6853 144.2656 180.8728 ZM155.0938 180.6853 L156.5938 180.9353 Q156.3125 181.7634 155.6875 182.1931 Q155.0625 182.6228 154.1094 182.6228 Q152.625 182.6228 151.9062 181.6541 Q151.3438 180.8728 151.3438 179.6853 Q151.3438 178.2634 152.0859 177.4666 Q152.8281 176.6697 153.9688 176.6697 Q155.2344 176.6697 155.9688 177.5056 Q156.7031 178.3416 156.6719 180.0759 L152.8906 180.0759 Q152.9062 180.7478 153.2578 181.1228 Q153.6094 181.4978 154.125 181.4978 Q154.4844 181.4978 154.7266 181.3025 Q154.9688 181.1072 155.0938 180.6853 ZM155.1719 179.1541 Q155.1562 178.4978 154.8359 178.1619 Q154.5156 177.8259 154.0625 177.8259 Q153.5625 177.8259 153.2344 178.1853 Q152.9219 178.5447 152.9219 179.1541 L155.1719 179.1541 Z"
         clip-path="url(#clipPath1)"
         stroke="none"
         id="path86"
         inkscape:export-xdpi="300"
         inkscape:export-ydpi="300" />
    </g>
  </g>
</svg>
